<svg id="Layer_1" data-name="Layer 1" xmlns="http://www.w3.org/2000/svg" viewBox="0 0 2969.81 2747.56"><defs><style>.cls-1{fill:#e5e5e5;}.cls-2{fill:#817c93;}.cls-3{opacity:0.3;}.cls-4{fill:#000072;}.cls-5{opacity:0.7;}.cls-6{fill:#fff;}.cls-7{opacity:0.5;}.cls-8{fill:#ef2b63;}</style></defs><path class="cls-1" d="M2466.8,3388.77a18.69,18.69,0,0,1-8.76-2.18c-178.66-94.46-432.64-101.19-443-101.41-10.4.22-264.38,7-443,101.41a18.75,18.75,0,0,1-23.45-4.9c-2.92-3.65-296.35-367.29-722.58-499.9a18.77,18.77,0,0,1-13.2-17.77c0-4.57-7-461.23-279.1-839.58a18.77,18.77,0,0,1,4.85-26.6c.65-.43,70-48,147.24-177.51,71.51-119.92,164.53-336.51,201.58-687.27a18.77,18.77,0,0,1,14.51-16.34c3.48-.8,353.36-84.49,660.23-468.44a18.76,18.76,0,0,1,23.79-4.68c1.22.67,130.12,69.59,429.17,69.59s427.95-68.92,429.22-69.62a18.82,18.82,0,0,1,23.74,4.71c306.87,384,656.75,467.64,660.25,468.45a18.78,18.78,0,0,1,14.49,16.33c37.05,350.76,130.07,567.35,201.58,687.27,77.25,129.54,146.6,177.08,147.29,177.54a18.83,18.83,0,0,1,4.81,26.57c-272.16,378.35-279.08,835-279.11,839.58a18.78,18.78,0,0,1-13.2,17.77c-426.23,132.61-719.66,496.25-722.58,499.9A18.75,18.75,0,0,1,2466.8,3388.77ZM849.91,2850c223.06,72.19,407.36,204.45,523.52,303.64,103,87.92,170.47,164.18,194.62,192.77,188.14-93.49,435.94-98.62,446.64-98.79.21,0,.41,0,.62,0,10.7.17,258.5,5.3,446.64,98.79,24.15-28.59,91.63-104.85,194.62-192.77C2772.73,3054.46,2957,2922.2,3180.09,2850c1.35-35.48,7.61-136.28,36.74-269.85,32.21-147.78,99.66-363.83,238.57-562.83-25.93-21.55-81.31-74.5-141.59-174.81-73.23-121.87-168.14-340.52-207-692.59-29.62-8.25-106.76-32.77-208.87-88.07C2781.55,998.86,2610,882.37,2448,683.37c-41.87,18.57-176.32,67.36-433,67.36s-391.16-48.79-433-67.36c-162,199-333.52,315.49-449.86,378.49-102.11,55.3-179.25,79.82-208.87,88.07-38.91,352.07-133.82,570.72-207,692.59-60.28,100.31-115.66,153.26-141.59,174.81,138.92,199,206.36,415.05,238.58,562.83C842.29,2713.73,848.56,2814.53,849.91,2850Z" transform="translate(-530.09 -641.22)"/><path class="cls-1" d="M1563.19,3388.78a18.54,18.54,0,0,1-5.92-1,18.76,18.76,0,0,1-11.89-23.73L1989,2029.77,548.9,2032.25h0a18.77,18.77,0,0,1,0-37.54L2015,1992.19h0a18.77,18.77,0,0,1,17.81,24.69L1581,3375.92A18.8,18.8,0,0,1,1563.19,3388.78Z" transform="translate(-530.09 -641.22)"/><path class="cls-1" d="M831.52,2882.64a18.77,18.77,0,0,1-11-34l1172.39-844.91L1558.84,665.79a18.78,18.78,0,1,1,35.72-11.58l438.3,1351a18.79,18.79,0,0,1-6.88,21L842.48,2879.1A18.71,18.71,0,0,1,831.52,2882.64Z" transform="translate(-530.09 -641.22)"/><path class="cls-1" d="M2015,2029.73a18.72,18.72,0,0,1-11.63-4l-1109-875.93a18.77,18.77,0,1,1,23.27-29.46l1109,875.93a18.77,18.77,0,0,1-11.65,33.5Z" transform="translate(-530.09 -641.22)"/><path class="cls-1" d="M2466.81,3388.78a18.77,18.77,0,0,1-17.81-12.86l-451.81-1359a18.76,18.76,0,0,1,17.81-24.69h0l1466.14,2.52a18.77,18.77,0,0,1,0,37.54h0L2041,2029.77l443.58,1334.31a18.76,18.76,0,0,1-11.89,23.73A18.54,18.54,0,0,1,2466.81,3388.78Z" transform="translate(-530.09 -641.22)"/><path class="cls-1" d="M3198.48,2882.64a18.71,18.71,0,0,1-11-3.54L2004,2026.19a18.79,18.79,0,0,1-6.88-21l438.3-1351a18.78,18.78,0,0,1,35.72,11.58L2037.08,2003.73l1172.39,844.91a18.77,18.77,0,0,1-11,34Z" transform="translate(-530.09 -641.22)"/><path class="cls-1" d="M2015,2029.73a18.77,18.77,0,0,1-11.65-33.5l1109-875.93a18.77,18.77,0,0,1,23.27,29.46l-1109,875.93A18.72,18.72,0,0,1,2015,2029.73Z" transform="translate(-530.09 -641.22)"/><path class="cls-1" d="M1635.78,3171.12a18.75,18.75,0,0,1-14.7-7.07c-2.44-3.07-248.22-307.59-605-418.61a18.76,18.76,0,0,1-13.19-17.77c0-3.83-5.87-386.24-233.72-703a18.76,18.76,0,0,1,4.85-26.59c.53-.36,58.43-40.15,122.95-148.5,59.76-100.37,137.51-281.63,168.52-575.19a18.75,18.75,0,0,1,14.51-16.33c2.91-.67,295.65-70.79,552.49-392.15a18.78,18.78,0,0,1,23.79-4.68c1,.55,108.78,58,358.77,58s357.76-57.48,358.82-58.06a18.84,18.84,0,0,1,23.74,4.71c256.84,321.36,549.58,391.48,552.51,392.15a18.79,18.79,0,0,1,14.49,16.33c31,293.56,108.76,474.82,168.52,575.19,64.52,108.35,122.42,148.14,123,148.53a18.83,18.83,0,0,1,4.8,26.56c-228.13,317.14-233.68,699.16-233.71,703a18.77,18.77,0,0,1-13.2,17.78c-356.83,111-602.6,415.54-605,418.61a18.79,18.79,0,0,1-23.46,4.9c-149-78.79-361-84.57-370.47-84.78-9.47.21-221.45,6-370.46,84.78A18.71,18.71,0,0,1,1635.78,3171.12Zm-595.86-457.47c324.93,105.73,551.33,356.74,600.73,415.15,158.27-77.77,365.07-82,374-82.18h.62c9,.15,215.77,4.41,374.05,82.18,49.39-58.41,275.79-309.42,600.73-415.15,3.27-71.35,29.19-407.06,229.85-696.08-54.62-45.87-236.42-233-291.31-726.29-60.79-17-316.16-102.58-551.05-390.34-37.79,16.36-150.94,55.88-362.58,55.88s-324.79-39.52-362.58-55.88c-234.89,287.76-490.26,373.32-551.05,390.34-54.89,493.31-236.69,680.42-291.31,726.29C1010.72,2306.59,1036.65,2642.3,1039.92,2713.65Z" transform="translate(-530.09 -641.22)"/><path class="cls-1" d="M2320.62,2950.39a18.72,18.72,0,0,1-8.76-2.18c-119-62.92-288.44-67.71-296.86-67.9-8.42.19-177.86,5-296.86,67.9a18.79,18.79,0,0,1-23.46-4.9c-2-2.46-199.41-247-485.85-336.15a18.79,18.79,0,0,1-13.2-17.78c0-3.07-4.76-310.18-187.66-564.45a18.77,18.77,0,0,1,4.85-26.6c1.79-1.21,185.74-130.5,233.29-580.57a18.77,18.77,0,0,1,14.5-16.34c2.33-.53,237.14-56.89,443.23-314.76a18.79,18.79,0,0,1,23.8-4.68c.78.43,87.13,46.31,287.36,46.31s286.58-45.88,287.43-46.34a18.86,18.86,0,0,1,23.73,4.71c206.66,258.58,440.88,314.23,443.22,314.76a18.77,18.77,0,0,1,14.51,16.34c47.8,452.47,231.44,579.34,233.29,580.57a18.77,18.77,0,0,1,4.85,26.6c-182.9,254.27-187.64,561.38-187.67,564.45a18.78,18.78,0,0,1-13.19,17.78c-286.44,89.11-483.89,333.69-485.85,336.15A18.76,18.76,0,0,1,2320.62,2950.39Zm-1087.84-375c257.57,84.7,438.07,281.84,481.47,332.71,128-61.82,293.23-65.23,300.44-65.35h.62c7.21.12,172.49,3.53,300.45,65.35,43.39-50.87,223.89-248,481.46-332.71,2.69-62.91,23.51-325,184-557.71-47.28-40.89-189.4-193.85-233.25-583.11-53.21-15.3-255.38-85.66-441.85-313-33.22,13.93-124.67,44.26-291.11,44.26s-257.9-30.33-291.11-44.26c-186.47,227.35-388.64,297.71-441.85,313-43.85,389.26-186,542.22-233.25,583.11C1209.27,2250.41,1230.09,2512.49,1232.78,2575.4Z" transform="translate(-530.09 -641.22)"/><path class="cls-1" d="M1776.12,2750.22a18.77,18.77,0,0,1-14.69-7.08c-1.53-1.91-155.15-192.13-377.77-261.38a18.77,18.77,0,0,1-13.19-17.78c0-2.38-3.77-241.21-145.91-438.82a18.77,18.77,0,0,1,4.85-26.6c1.35-.92,143.62-101.43,180.53-450.81a18.78,18.78,0,0,1,14.51-16.33c1.79-.41,184.06-44.3,344.14-244.58a18.75,18.75,0,0,1,23.79-4.69c.57.31,67.5,35.68,222.62,35.68s222.05-35.37,222.7-35.73a18.87,18.87,0,0,1,23.71,4.74c160.08,200.28,342.34,244.17,344.17,244.59a18.79,18.79,0,0,1,14.48,16.32c36.9,349.38,179.19,449.89,180.62,450.87a18.86,18.86,0,0,1,4.77,26.54C2663.3,2222.77,2659.56,2461.6,2659.53,2464a18.78,18.78,0,0,1-13.19,17.77c-222.62,69.25-376.24,259.47-377.77,261.38a18.8,18.8,0,0,1-23.45,4.9c-91.81-48.55-222.76-52.42-230.12-52.6-7.36.18-138.3,4-230.12,52.6A18.69,18.69,0,0,1,1776.12,2750.22ZM1407.56,2450c197,65.72,336.1,214.73,373.43,258,100.42-47.4,228.08-50,233.7-50.13.21,0,.41,0,.62,0,5.62.09,133.28,2.73,233.7,50.13,37.33-43.28,176.42-192.29,373.43-258,2.61-53.87,20.47-253.59,142.35-432.26-39.9-35.8-146.74-157.24-180.66-453.27-45.56-13.53-199.91-69.79-342.84-242.88-28.59,11.49-100.22,33.76-226.29,33.76s-197.7-22.27-226.29-33.76c-142.93,173.09-297.28,229.35-342.84,242.88-33.92,296-140.75,417.47-180.66,453.27C1387.09,2196.43,1405,2396.15,1407.56,2450Z" transform="translate(-530.09 -641.22)"/><path class="cls-1" d="M2197.35,2580.66a18.63,18.63,0,0,1-8.77-2.17c-69-36.49-167.21-39.48-173.57-39.64-6.25.16-104.72,3.22-173.59,39.64a18.79,18.79,0,0,1-23.47-4.91c-1.15-1.44-117.64-145.6-286.2-198a18.77,18.77,0,0,1-13.19-17.78c0-1.8-2.92-182.79-110.55-332.41a18.76,18.76,0,0,1,4.86-26.6c1-.66,108-76.8,135.85-340.89a18.76,18.76,0,0,1,14.5-16.33c1.35-.31,139.11-33.62,260.21-185.14a18.79,18.79,0,0,1,23.8-4.69c.38.21,50.86,26.68,167.77,26.68s167.39-26.47,167.89-26.74a18.91,18.91,0,0,1,23.68,4.75c121.1,151.52,258.86,184.83,260.24,185.15a18.8,18.8,0,0,1,14.47,16.32c27.9,264.09,134.89,340.23,136,341a18.91,18.91,0,0,1,4.74,26.53C2514.36,2175,2511.46,2356,2511.44,2357.77a18.8,18.8,0,0,1-13.19,17.77c-168.94,52.55-285.05,196.59-286.2,198A18.76,18.76,0,0,1,2197.35,2580.66ZM2015,2501.31h.31c4.27.07,100.11,2.05,177.16,37.27,31.53-36,135.71-145,281.93-194.76,2.52-45.2,17.55-192.77,107.14-326.05-32.91-30.88-110.59-125.09-136.17-343.26-38.24-11.82-152.6-55.86-259-183.51-24.13,9.21-78.84,24.92-171.36,24.92s-147.23-15.71-171.36-24.92c-106.41,127.65-220.77,171.69-259,183.51-25.58,218.17-103.26,312.38-136.17,343.26,89.59,133.28,104.62,280.85,107.14,326.05,146.22,49.74,250.4,158.72,281.93,194.76,77-35.22,172.88-37.2,177.16-37.27Z" transform="translate(-530.09 -641.22)"/><path class="cls-1" d="M1884.87,2424.08a18.77,18.77,0,0,1-14.7-7.09c-.81-1-83-102.64-201.65-139.55a18.77,18.77,0,0,1-13.19-17.78c0-1.26-2.14-128.83-77.88-234.14a18.76,18.76,0,0,1,4.85-26.59c.59-.42,75-54,94.58-239.38a18.75,18.75,0,0,1,14.51-16.33c.91-.21,97.58-23.75,182.7-130.24a18.75,18.75,0,0,1,23.79-4.69c.19.1,35.47,18.36,117.12,18.36s116.93-18.26,117.28-18.45a19,19,0,0,1,23.63,4.78c85.12,106.49,181.78,130,182.75,130.25a18.85,18.85,0,0,1,14.46,16.32c19.58,185.34,94,239,94.74,239.48a18.93,18.93,0,0,1,4.7,26.49c-75.75,105.31-77.87,232.88-77.89,234.16a18.8,18.8,0,0,1-13.19,17.76c-119,37-200.84,138.53-201.65,139.55a18.76,18.76,0,0,1-23.46,4.91c-47.86-25.3-116.13-27.53-121.36-27.66-5.11.13-73.66,2.43-121.38,27.66A18.69,18.69,0,0,1,1884.87,2424.08ZM2015,2356.69h.31c3,0,69.57,1.43,124.94,25.47,25.31-28.34,97.5-101.3,197.47-136.4,2.4-36,14.42-136.22,74.68-228.08-25.53-25.52-77.19-94-95.19-241.62-30.44-10-108.47-42.28-181.63-128.71-19.34,6.85-58.24,16.84-120.58,16.84s-101.24-10-120.58-16.84c-73.17,86.43-151.19,118.75-181.63,128.71-18,147.66-69.66,216.1-95.19,241.62,60.26,91.86,72.28,192.11,74.68,228.08,100,35.1,172.16,108.06,197.48,136.4,55.36-24,121.9-25.42,124.93-25.47Z" transform="translate(-530.09 -641.22)"/><path class="cls-1" d="M1927.83,2295.24a18.79,18.79,0,0,1-14.7-7.08c-.52-.65-54.53-67.31-132.08-91.43a18.77,18.77,0,0,1-13.19-17.78c0-.81-1.49-84.44-51-153.28a18.77,18.77,0,0,1,4.85-26.6c.24-.18,47.89-35.28,60.63-155.85a18.75,18.75,0,0,1,14.51-16.33c.55-.13,63.41-15.63,118.92-85.08a18.77,18.77,0,0,1,23.8-4.68h0s22.81,11.51,75.44,11.51,75.46-11.52,75.69-11.64a18.48,18.48,0,0,1,23.55,4.81c56.06,70.14,118.3,84.94,118.93,85.08a18.78,18.78,0,0,1,14.51,16.33c12.76,120.91,60.15,155.53,60.62,155.85a18.77,18.77,0,0,1,4.85,26.6c-49.52,68.84-51,152.47-51,153.31a18.79,18.79,0,0,1-13.19,17.75c-77.54,24.12-131.55,90.78-132.09,91.45a18.81,18.81,0,0,1-23.45,4.88c-30.31-16-74.21-17.68-78.42-17.8-4.12.12-48.07,1.77-78.4,17.8A18.69,18.69,0,0,1,1927.83,2295.24Zm87.17-57.53h.31c2,0,44.59.91,82,15.86,19.2-20.85,65.35-65.31,128.07-88.45,2.22-26.92,11.27-89.28,48.08-147.62-18.47-20.12-49.76-66.54-61.62-158-22.79-8.06-71.64-30.26-118-83.58-14.53,4.65-40,10.24-78.83,10.24s-64.3-5.59-78.83-10.24c-46.32,53.32-95.16,75.52-118,83.58-11.86,91.43-43.15,137.85-61.62,158,36.81,58.34,45.86,120.7,48.08,147.62,62.73,23.14,108.87,67.6,128.08,88.45,37.35-15,79.93-15.83,81.94-15.86Z" transform="translate(-530.09 -641.22)"/><path class="cls-1" d="M1965,2183.71a18.75,18.75,0,0,1-14.69-7.08c-.27-.33-29.86-36.71-71.86-49.77a18.77,18.77,0,0,1-13.19-17.78c0-.41-.92-46-27.75-83.29-3.08-4.28-4.65-9.39-3.56-14.56a17.66,17.66,0,0,1,8.19-11.9c2.31-1.91,25-22.12,31.46-83.68a18.79,18.79,0,0,1,14.51-16.33c.2,0,33.83-8.58,63.72-46a18.76,18.76,0,0,1,23.78-4.68h0c.05,0,12.12,5.59,39.38,5.59,27.64,0,39.67-5.75,39.79-5.81,8-4.46,17.65-2.26,23.37,4.9,29.89,37.4,63.52,45.93,63.86,46a19,19,0,0,1,14.37,16.3c6.5,61.56,29.15,81.77,31.46,83.68a17.66,17.66,0,0,1,8.19,11.9c1.09,5.17-.48,10.28-3.56,14.56-27.08,37.65-27.74,82.83-27.75,83.29a18.77,18.77,0,0,1-13.19,17.78c-42,13.06-71.59,49.44-71.88,49.8a18.83,18.83,0,0,1-23.44,4.87c-13.42-7.09-34-9.09-41.23-9.28-7.2.19-27.78,2.18-41.21,9.28A18.73,18.73,0,0,1,1965,2183.71Zm50-49h.31c2.81.05,24,.63,44.7,7.76,12.56-12.89,36.58-34.26,68.12-47.06,1.92-17.12,7.7-48.07,25.17-78.09-11.19-13.85-26.08-40-32.74-85.69-14.55-5.83-39.16-18.63-63-44.6-9.4,2.47-23.33,4.78-42.6,4.78s-33.2-2.31-42.6-4.78c-23.8,26-48.41,38.77-63,44.6-6.66,45.65-21.55,71.84-32.74,85.69,17.46,30,23.25,61,25.16,78.09,31.55,12.8,55.57,34.17,68.13,47.06,20.75-7.13,41.88-7.71,44.7-7.76Zm-39.38-286h0Z" transform="translate(-530.09 -641.22)"/><path class="cls-2" d="M1565.55,2460.64a.16.16,0,0,0-.09,0l-.14.14-.66.52-1.64,1.31-3.66,3c-2.54,2.21-5.16,4.56-7.79,7-5.21,4.83-10.51,10-15.68,15.44-10.37,10.74-20.41,22.24-30,34.26a597.78,597.78,0,0,0-51.9,77.15,662,662,0,0,0-40.36,85.08,742.64,742.64,0,0,0-25.44,77.48q1.48,7,3.24,14.08c3.15,12.81,7,25.72,11.12,38.58a586.23,586.23,0,0,0,30.84,75.51c6,12.25,12.67,24.31,19.57,36.18,7.08,11.78,14.5,23.47,22.48,34.73a497.23,497.23,0,0,0,53.64,63.87l.47.47a28.85,28.85,0,0,1-35.62,44.87,560.43,560.43,0,0,1-76.26-56.46c-12-10.51-23.47-21.64-34.68-33s-21.83-23.46-32.15-35.81a695.18,695.18,0,0,1-56.51-78.6c-8.49-13.8-16.66-28-24.26-42.66-3.8-7.33-7.51-14.79-11.07-22.44-1.79-3.84-3.57-7.74-5.31-11.78l-2.58-6.24-1.31-3.28-.71-1.83c-.23-.66-.42-1.18-.79-2.4a69.08,69.08,0,0,1-.29-34.44l.1-.43a893.61,893.61,0,0,1,34.45-107.84,807.23,807.23,0,0,1,48.94-103,741.27,741.27,0,0,1,64.34-95.6c12.11-15.16,24.92-29.85,38.67-44.11,6.86-7.14,13.94-14.13,21.45-21.07,3.71-3.48,7.6-7,11.59-10.42l6.34-5.3,3.42-2.77,4.6-3.52a70.41,70.41,0,0,1,83.63,113.29Z" transform="translate(-530.09 -641.22)"/><g class="cls-3"><path class="cls-4" d="M1580.34,2362.46A70.39,70.39,0,0,0,1487,2344c1.39,1.35,2.77,2.71,4.06,4.19a72.92,72.92,0,0,1-6.42,102.6.22.22,0,0,0-.1.06l-.13.16-.63.59-1.58,1.5-3.5,3.48c-2.41,2.5-4.91,5.16-7.41,7.91-4.94,5.45-9.94,11.31-14.78,17.34-9.73,12-19.06,24.78-27.85,38a618.34,618.34,0,0,0-46.61,84.25,687.15,687.15,0,0,0-34,91.4q-9.78,33.08-16.45,67.23a56.16,56.16,0,0,0,1.73,29.07l.05.14c4.4,12.93,9.48,25.91,14.94,38.8a606.16,606.16,0,0,0,38.59,75.12c7.35,12.09,15.26,23.93,23.44,35.56,8.37,11.52,17.07,22.9,26.31,33.81a515.64,515.64,0,0,0,61.07,61.06l.53.44a29.87,29.87,0,0,1,6.66,37.56,28.86,28.86,0,0,0,29.77-15.06c6.08-11.07,3.61-24.92-5.32-33.85l-.31-.32a497.23,497.23,0,0,1-53.64-63.87c-8-11.26-15.4-23-22.48-34.73-6.9-11.87-13.52-23.93-19.57-36.18a586.23,586.23,0,0,1-30.84-75.51c-4.17-12.86-8-25.77-11.12-38.58q-1.76-7.11-3.24-14.08a742.64,742.64,0,0,1,25.44-77.48,662,662,0,0,1,40.36-85.08,597.78,597.78,0,0,1,51.9-77.15c9.58-12,19.62-23.52,30-34.26,5.17-5.4,10.47-10.61,15.68-15.44,2.63-2.44,5.25-4.79,7.79-7l3.66-3,1.64-1.31.66-.52.14-.14a.16.16,0,0,1,.09,0A70.44,70.44,0,0,0,1580.34,2362.46Z" transform="translate(-530.09 -641.22)"/></g><g class="cls-5"><path class="cls-6" d="M1450.53,3023.32c-12-10.51-23.47-21.63-34.68-33q-16.62-17.33-32.15-35.81a693.08,693.08,0,0,1-56.5-78.61c-8.5-13.8-16.66-28-24.27-42.66-3.8-7.32-7.51-14.78-11.07-22.43-1.79-3.85-3.57-7.74-5.31-11.78l-2.58-6.24-1.31-3.29-.71-1.83c-.23-.65-.42-1.17-.79-2.39a69,69,0,0,1-.28-34.45l.09-.42a893.61,893.61,0,0,1,34.45-107.84,808,808,0,0,1,48.94-103,742.2,742.2,0,0,1,64.34-95.59c12.11-15.16,24.92-29.85,38.68-44.12,6.85-7.13,13.93-14.12,21.44-21.07,3.71-3.47,7.6-6.94,11.59-10.42l6.34-5.3,3.43-2.77,4.59-3.52a70.11,70.11,0,0,1,44-13.54,70.4,70.4,0,0,0-76.9,4.16l-4.6,3.52-3.42,2.77-6.34,5.3c-4,3.47-7.88,6.94-11.59,10.42-7.51,6.94-14.59,13.93-21.45,21.07-13.75,14.26-26.56,29-38.67,44.11a741.27,741.27,0,0,0-64.34,95.6,807.23,807.23,0,0,0-48.94,103A893.61,893.61,0,0,0,1248.12,2741l-.1.43a69.08,69.08,0,0,0,.29,34.44c.37,1.22.56,1.74.79,2.4l.71,1.83,1.31,3.28,2.58,6.24c1.74,4,3.52,7.94,5.31,11.78,3.56,7.65,7.27,15.11,11.07,22.44,7.6,14.68,15.77,28.86,24.26,42.66a695.18,695.18,0,0,0,56.51,78.6q15.48,18.52,32.15,35.81c11.21,11.4,22.66,22.53,34.68,33a560.43,560.43,0,0,0,76.26,56.46,28.86,28.86,0,0,0,23.17,3.13A557.82,557.82,0,0,1,1450.53,3023.32Z" transform="translate(-530.09 -641.22)"/></g><path class="cls-4" d="M1509.09,3093.5a47.47,47.47,0,0,1-25-7.14,581.24,581.24,0,0,1-78.8-58.34c-11-9.61-22.33-20.42-35.65-33.95-11.85-12.35-22.95-24.72-33.16-36.94a714.83,714.83,0,0,1-58.08-80.79c-9.47-15.38-17.63-29.73-25-43.89-4.16-8-7.89-15.57-11.42-23.13-1.87-4-3.72-8.09-5.53-12.3l-5.09-12.62c-.29-.78-.54-1.5-1-3l-.21-.72a88.41,88.41,0,0,1-.42-43.51l.17-.73a916.24,916.24,0,0,1,35.17-110.11,827.35,827.35,0,0,1,50.08-105.39,763,763,0,0,1,66-98.09c12.73-15.94,26.13-31.22,39.83-45.44,7.38-7.69,14.66-14.83,22.22-21.82,3.77-3.54,7.84-7.17,12-10.8l10.3-8.52,5-3.82c40-29.31,95.88-20.73,125,18.91A89.45,89.45,0,0,1,1577,2475.53l-5.61,4.6c-2.06,1.8-4.54,4-7,6.32-5.1,4.73-10.11,9.66-14.89,14.66-9.89,10.25-19.59,21.33-28.88,33a582.27,582.27,0,0,0-50.28,74.76,647.62,647.62,0,0,0-39.15,82.55,723.87,723.87,0,0,0-23.63,71.22q1,4.5,2.14,9.07c2.82,11.48,6.34,23.67,10.76,37.28a567.72,567.72,0,0,0,29.83,73c5.37,10.86,11.58,22.34,19,35,7.63,12.69,14.74,23.67,21.57,33.31a479.86,479.86,0,0,0,51.65,61.51l.45.44a47.65,47.65,0,0,1-33.78,81.21Zm-242.73-322.81c.15.48.25.76.36,1.06l4.33,10.69c1.56,3.63,3.27,7.36,5,11,3.29,7,6.79,14.14,10.71,21.68,6.91,13.35,14.62,26.9,23.59,41.47a676.61,676.61,0,0,0,55,76.47c9.62,11.5,20.15,23.23,31.24,34.79,12.48,12.69,23.18,22.88,33.5,31.91a542.86,542.86,0,0,0,73.76,54.61,10.07,10.07,0,0,0,12.41-1.45,10.07,10.07,0,0,0,0-14.22l-.45-.45a518.19,518.19,0,0,1-55.69-66.31c-7.34-10.37-14.94-22.11-23.21-35.85-7.94-13.67-14.54-25.87-20.31-37.54a605.49,605.49,0,0,1-31.85-78c-4.72-14.54-8.48-27.59-11.51-39.94q-1.83-7.38-3.37-14.66l-.94-4.43,1.18-4.37a765.43,765.43,0,0,1,26.09-79.44,683.46,683.46,0,0,1,41.46-87.41,619.58,619.58,0,0,1,53.61-79.7c10-12.55,20.49-24.52,31.15-35.56,5.23-5.48,10.77-10.94,16.41-16.17,2.76-2.56,5.54-5,8.21-7.37l6-4.91,5-4.74h.79a51.63,51.63,0,0,0-65.72-79.43l-7.34,5.76-6.08,5.09c-3.53,3.09-7.26,6.4-10.8,9.72-7.1,6.57-13.85,13.21-20.74,20.38-12.92,13.41-25.55,27.81-37.55,42.83a726.1,726.1,0,0,0-62.69,93.16A790.62,790.62,0,0,0,1300.06,2640a876.78,876.78,0,0,0-33.67,105.34l-.15.64A50,50,0,0,0,1266.36,2770.69Z" transform="translate(-530.09 -641.22)"/><path class="cls-2" d="M1506.89,2285.9a.2.2,0,0,0-.09-.06l-.2,0-.79-.27-2-.68-4.54-1.45c-3.22-1-6.61-1.91-10.08-2.81-6.88-1.79-14.12-3.47-21.45-4.92-14.63-3-29.73-5.25-45-6.87a598.28,598.28,0,0,0-93-2.29,662.84,662.84,0,0,0-93.44,11.7,738.64,738.64,0,0,0-79,20.21q-5.08,5-10.13,10.29c-9.12,9.54-18,19.69-26.55,30.12a584.16,584.16,0,0,0-47.1,66.59c-7.07,11.69-13.69,23.75-20,35.95-6.12,12.31-12,24.84-17.2,37.63a497,497,0,0,0-25,79.56l-.15.65a28.84,28.84,0,0,1-57-5.92,561.38,561.38,0,0,1,6.61-94.65c2.41-15.78,5.63-31.42,9.22-47q5.67-23.31,12.91-46.35a694,694,0,0,1,35.91-89.9c7.07-14.58,14.63-29.09,22.93-43.39,4.13-7.15,8.43-14.28,13-21.4,2.28-3.58,4.61-7.17,7.08-10.81l3.87-5.53,2.07-2.87,1.16-1.58c.43-.55.76-1,1.59-2a69,69,0,0,1,28.9-18.75l.4-.15A893.89,893.89,0,0,1,1209.3,2140a807.7,807.7,0,0,1,113.17-14.1,740.22,740.22,0,0,1,115.2,2.87c19.29,2.06,38.56,5,58,8.89,9.7,1.94,19.41,4.16,29.3,6.76,4.92,1.26,9.94,2.68,15,4.17l7.87,2.49,4.18,1.41,5.44,2a70.41,70.41,0,0,1-50.57,131.42Z" transform="translate(-530.09 -641.22)"/><g class="cls-3"><path class="cls-4" d="M1597.62,2245.59A70.38,70.38,0,0,0,1563,2157c-.39,1.9-.8,3.79-1.35,5.68a72.92,72.92,0,0,1-90,49.74.15.15,0,0,0-.1,0l-.2,0-.84-.21-2.12-.52-4.81-1.09c-3.41-.69-7-1.37-10.65-2-7.26-1.23-14.88-2.31-22.57-3.14-15.36-1.75-31.14-2.75-47-3.05a619.57,619.57,0,0,0-96.1,6,686.61,686.61,0,0,0-95.34,20.47c-22.1,6.36-44,13.84-65.53,22.27a56.09,56.09,0,0,0-23.58,17.09l-.1.12c-8.54,10.65-16.75,21.91-24.68,33.45a605.7,605.7,0,0,0-42.6,72.92c-6.25,12.69-12,25.73-17.39,38.88-5.21,13.25-10.14,26.71-14.36,40.36A514.61,514.61,0,0,0,985,2538.19l-.09.68a29.86,29.86,0,0,1-28.09,25.8,28.87,28.87,0,0,0,28.7,17c12.6-.83,23-10.36,25.69-22.68l.1-.44a497,497,0,0,1,25-79.56c5.21-12.79,11.08-25.32,17.2-37.63,6.3-12.2,12.92-24.26,20-35.95a584.16,584.16,0,0,1,47.1-66.59c8.6-10.43,17.43-20.58,26.55-30.12q5-5.3,10.13-10.29a738.64,738.64,0,0,1,79-20.21,662.84,662.84,0,0,1,93.44-11.7,598.28,598.28,0,0,1,93,2.29c15.27,1.62,30.37,3.9,45,6.87,7.33,1.45,14.57,3.13,21.45,4.92,3.47.9,6.86,1.86,10.08,2.81l4.54,1.45,2,.68.79.27.2,0a.2.2,0,0,1,.09.06A70.43,70.43,0,0,0,1597.62,2245.59Z" transform="translate(-530.09 -641.22)"/></g><g class="cls-5"><path class="cls-6" d="M970.58,2491.38c2.41-15.78,5.63-31.41,9.22-47,3.78-15.55,8.05-31,12.91-46.36a693.66,693.66,0,0,1,35.91-89.9c7.07-14.58,14.63-29.08,22.93-43.39,4.13-7.14,8.43-14.28,13-21.4,2.29-3.57,4.61-7.17,7.08-10.8l3.88-5.53,2.06-2.88,1.17-1.57c.42-.55.76-1,1.59-2a69,69,0,0,1,28.89-18.76l.41-.14A893.74,893.74,0,0,1,1219,2172.76a807.65,807.65,0,0,1,113.18-14.1,741.31,741.31,0,0,1,115.19,2.86c19.29,2.07,38.57,5,58,8.9,9.7,1.94,19.4,4.16,29.29,6.76,4.93,1.26,10,2.67,15,4.17l7.88,2.49,4.17,1.4,5.44,2a70,70,0,0,1,35.1,29.86,70.39,70.39,0,0,0-44.84-62.61l-5.44-2-4.18-1.41-7.87-2.49c-5.08-1.49-10.1-2.91-15-4.17-9.89-2.6-19.6-4.82-29.3-6.76-19.42-3.92-38.69-6.83-58-8.89a740.22,740.22,0,0,0-115.2-2.87A807.7,807.7,0,0,0,1209.3,2140a893.89,893.89,0,0,0-109.46,28.93l-.4.15a69,69,0,0,0-28.9,18.75c-.83,1-1.16,1.41-1.59,2l-1.16,1.58-2.07,2.87-3.87,5.53c-2.47,3.64-4.8,7.23-7.08,10.81-4.54,7.12-8.84,14.25-13,21.4-8.3,14.3-15.86,28.81-22.93,43.39a694,694,0,0,0-35.91,89.9q-7.28,23-12.91,46.35c-3.59,15.59-6.81,31.23-9.22,47a561.38,561.38,0,0,0-6.61,94.65,28.89,28.89,0,0,0,9.82,21.23A558.14,558.14,0,0,1,970.58,2491.38Z" transform="translate(-530.09 -641.22)"/></g><path class="cls-4" d="M983.17,2600.51a47.75,47.75,0,0,1-47.72-47,580.27,580.27,0,0,1,6.84-97.81c2.2-14.44,5.21-29.82,9.46-48.3,4.06-16.65,8.51-32.66,13.32-47.82A715.31,715.31,0,0,1,1002,2267.2c7.86-16.23,15.57-30.82,23.58-44.63,4.52-7.81,8.89-15,13.37-22.06,2.4-3.75,4.82-7.49,7.38-11.27l7.85-11c.63-.8,1.1-1.4,2.11-2.58l.46-.52a88.49,88.49,0,0,1,36.72-23.84,915.85,915.85,0,0,1,112.21-29.69,828,828,0,0,1,115.78-14.43,763.1,763.1,0,0,1,118.2,2.94c20.27,2.17,40.36,5.25,59.73,9.16,10.5,2.11,20.43,4.4,30.35,7,5,1.28,10.26,2.75,15.56,4.32l13.18,4.26,5.44,2c46.2,17.93,69,69.7,51.22,115.53a89.44,89.44,0,0,1-114.59,51.18l-6.94-2.27c-2.66-.78-5.85-1.68-9.12-2.53-6.72-1.76-13.56-3.33-20.36-4.67-13.95-2.83-28.5-5.05-43.34-6.62a580.78,580.78,0,0,0-90.07-2.21,645.76,645.76,0,0,0-90.66,11.36A722.94,722.94,0,0,0,1167.3,2315q-3.25,3.27-6.5,6.68c-8.18,8.56-16.56,18.07-25.65,29.11a566.09,566.09,0,0,0-45.56,64.42c-6.25,10.32-12.59,21.73-19.35,34.8-6.71,13.49-12,25-16.48,36.09a480.21,480.21,0,0,0-24.1,76.62l-.15.64a47.67,47.67,0,0,1-46.34,37.17Zm101.42-400.21c-.32.38-.5.62-.7.87l-6.67,9.39c-2.21,3.26-4.45,6.71-6.64,10.14-4.16,6.55-8.27,13.32-12.53,20.68-7.55,13-14.83,26.81-22.28,42.18a679.54,679.54,0,0,0-34.94,87.46c-4.52,14.28-8.75,29.47-12.54,45.05-4,17.33-6.83,31.82-8.9,45.4A543.2,543.2,0,0,0,973,2553a10.06,10.06,0,0,0,7.89,9.68,9.86,9.86,0,0,0,7.56-1.31,10,10,0,0,0,4.45-6.31l.15-.65a518.48,518.48,0,0,1,26-82.58c4.84-11.87,10.49-24.23,17.75-38.84,7.28-14.08,14-26.21,20.74-37.31a604.58,604.58,0,0,1,48.65-68.78c9.7-11.78,18.68-22,27.48-31.17q5.25-5.51,10.55-10.72l3.23-3.18,4.32-1.35a765,765,0,0,1,81-20.71,684,684,0,0,1,96-12,617.21,617.21,0,0,1,96,2.37c16,1.69,31.7,4.09,46.72,7.13,7.45,1.48,15,3.22,22.46,5.16,3.66,1,7.25,2,10.66,3l7.22,2.34,5.88,1.36.62.81a51.63,51.63,0,0,0,32.34-97.93l-8.78-3.08-7.57-2.4c-4.51-1.32-9.3-2.68-14-3.88-9.31-2.45-18.54-4.58-28.33-6.54-18.27-3.69-37.2-6.6-56.3-8.63a725.3,725.3,0,0,0-112.26-2.79A790.48,790.48,0,0,0,1213,2158.42a877.57,877.57,0,0,0-107.18,28.33A50.52,50.52,0,0,0,1084.59,2200.3Z" transform="translate(-530.09 -641.22)"/><path class="cls-2" d="M1374.84,1967.66a.13.13,0,0,0-.07-.08l-.18-.09-.7-.46-1.76-1.14-4.05-2.51c-2.9-1.7-6-3.45-9.1-5.17-6.24-3.41-12.86-6.8-19.61-10-13.48-6.43-27.56-12.32-42-17.6a597.67,597.67,0,0,0-89.61-24.83,663.51,663.51,0,0,0-93.48-11.36,739.8,739.8,0,0,0-81.55.39q-6.15,3.62-12.33,7.53c-11.16,7-22.2,14.72-33.08,22.76a585,585,0,0,0-61.87,53.14c-9.7,9.62-19.05,19.71-28.13,30-8.93,10.45-17.67,21.18-25.83,32.32a498.4,498.4,0,0,0-43.62,71.09l-.29.6a28.84,28.84,0,0,1-53.83-19.6,559.85,559.85,0,0,1,29.42-90.2c6.17-14.73,13.1-29.11,20.37-43.36q11.16-21.24,23.79-41.82A694.2,694.2,0,0,1,904,1838.81c10.4-12.42,21.26-24.65,32.79-36.51q8.61-8.9,17.77-17.61c3.09-2.91,6.22-5.83,9.5-8.76l5.1-4.42,2.7-2.29,1.52-1.24c.55-.43,1-.77,2-1.52A69.09,69.09,0,0,1,1008,1755.3l.43,0a894,894,0,0,1,113.21-1.45,805.87,805.87,0,0,1,113.2,13.84,740.21,740.21,0,0,1,111.05,30.78c18.21,6.69,36.2,14.2,54.08,22.73,8.94,4.24,17.81,8.75,26.78,13.67,4.46,2.42,9,5,13.55,7.7l7,4.33,3.71,2.38,4.8,3.25a70.41,70.41,0,0,1-81,115.18Z" transform="translate(-530.09 -641.22)"/><g class="cls-3"><path class="cls-4" d="M1472.65,1950.61a70.36,70.36,0,0,0-12-94.36c-.84,1.74-1.69,3.48-2.68,5.18a72.93,72.93,0,0,1-99.37,26.37.18.18,0,0,0-.08-.07l-.19-.08-.76-.41-1.93-1-4.4-2.22c-3.14-1.5-6.45-3-9.85-4.52-6.74-3-13.87-5.86-21.13-8.54-14.48-5.43-29.54-10.24-44.89-14.39a619.5,619.5,0,0,0-94.67-17.55,686.38,686.38,0,0,0-97.46-3.32c-23,.79-46,2.74-69,5.67a56,56,0,0,0-27,10.84l-.13.09c-10.87,8.26-21.57,17.19-32.07,26.45a606.11,606.11,0,0,0-59,60.38c-9.14,10.79-17.88,22.05-26.32,33.49-8.27,11.58-16.32,23.44-23.74,35.65a515.22,515.22,0,0,0-38.6,77.26l-.26.64a29.84,29.84,0,0,1-33.51,18.2,28.85,28.85,0,0,0,23.7,23.48c12.43,2.26,24.79-4.47,30.43-15.76l.2-.4a498.4,498.4,0,0,1,43.62-71.09c8.16-11.14,16.9-21.87,25.83-32.32,9.08-10.3,18.43-20.39,28.13-30a585,585,0,0,1,61.87-53.14c10.88-8,21.92-15.73,33.08-22.76q6.18-3.91,12.33-7.53a739.8,739.8,0,0,1,81.55-.39,663.51,663.51,0,0,1,93.48,11.36,597.67,597.67,0,0,1,89.61,24.83c14.43,5.28,28.51,11.17,42,17.6,6.75,3.19,13.37,6.58,19.61,10,3.14,1.72,6.2,3.47,9.1,5.17l4.05,2.51,1.76,1.14.7.46.18.09a.13.13,0,0,1,.07.08A70.43,70.43,0,0,0,1472.65,1950.61Z" transform="translate(-530.09 -641.22)"/></g><g class="cls-5"><path class="cls-6" d="M804.67,2036.6c6.17-14.72,13.1-29.11,20.37-43.36q11.16-21.23,23.79-41.82a694.2,694.2,0,0,1,56.69-78.48c10.4-12.42,21.26-24.65,32.79-36.51q8.61-8.88,17.78-17.61c3.08-2.9,6.21-5.83,9.49-8.75l5.11-4.43,2.7-2.28,1.51-1.25c.55-.43,1-.77,2-1.51a69,69,0,0,1,32.59-11.17l.43,0a895.7,895.7,0,0,1,113.2-1.45,809,809,0,0,1,113.21,13.84,740.46,740.46,0,0,1,111,30.79c18.21,6.68,36.2,14.19,54.08,22.72,8.94,4.24,17.81,8.75,26.78,13.68,4.47,2.41,9,5,13.55,7.7l7,4.33,3.72,2.37,4.79,3.25a70.1,70.1,0,0,1,26.79,37.5,70.42,70.42,0,0,0-28.28-71.63l-4.8-3.25-3.71-2.38-7-4.33c-4.56-2.68-9.09-5.28-13.55-7.7-9-4.92-17.84-9.43-26.78-13.67-17.88-8.53-35.87-16-54.08-22.73a740.21,740.21,0,0,0-111.05-30.78,805.87,805.87,0,0,0-113.2-13.84,894,894,0,0,0-113.21,1.45l-.43,0a69.09,69.09,0,0,0-32.58,11.16c-1,.75-1.47,1.09-2,1.52l-1.52,1.24-2.7,2.29-5.1,4.42c-3.28,2.93-6.41,5.85-9.5,8.76q-9.18,8.71-17.77,17.61c-11.53,11.86-22.39,24.09-32.79,36.51a694.2,694.2,0,0,0-56.69,78.48q-12.66,20.55-23.79,41.82c-7.27,14.25-14.2,28.63-20.37,43.36a559.85,559.85,0,0,0-29.42,90.2,28.84,28.84,0,0,0,4.36,23A558.7,558.7,0,0,1,804.67,2036.6Z" transform="translate(-530.09 -641.22)"/></g><path class="cls-4" d="M801.74,2146.89a47.63,47.63,0,0,1-46.26-58.53,581.83,581.83,0,0,1,30.41-93.22c5.65-13.47,12.31-27.65,20.93-44.55,7.93-15.09,16.15-29.53,24.54-43.15a716.06,716.06,0,0,1,58.26-80.66c11.59-13.85,22.63-26.13,33.74-37.57,6.33-6.53,12.33-12.47,18.32-18.15,3.25-3.06,6.5-6.09,9.92-9.14l9.87-8.43c1-.82,1.62-1.28,3-2.28l.63-.44a88.47,88.47,0,0,1,41.41-14.19,917.18,917.18,0,0,1,116.07-1.53,827.78,827.78,0,0,1,115.81,14.16,762.66,762.66,0,0,1,113.94,31.59c19.15,7,37.89,14.9,55.71,23.4,9.6,4.56,18.68,9.2,27.74,14.17,4.55,2.47,9.28,5.18,14,8l11.76,7.34,4.79,3.25c40.45,28.63,50,84.39,21.6,124.52a89.44,89.44,0,0,1-123.65,21.75l-6.13-3.86c-2.38-1.4-5.27-3-8.23-4.68-6.1-3.33-12.36-6.52-18.61-9.47-12.85-6.14-26.43-11.83-40.43-17a579.15,579.15,0,0,0-86.83-24,645.12,645.12,0,0,0-90.7-11,725.63,725.63,0,0,0-75,.13q-3.94,2.39-7.91,4.89c-10,6.33-20.49,13.52-32,22a567.57,567.57,0,0,0-59.86,51.41c-8.58,8.51-17.5,18-27.22,29.06-9.79,11.45-17.72,21.37-24.77,31a480.85,480.85,0,0,0-42,68.47l-.28.55A47.73,47.73,0,0,1,801.74,2146.89ZM986,1782c-.45.33-.7.52-1,.76l-8.66,7.41c-2.95,2.63-6,5.44-8.91,8.23-5.58,5.28-11.21,10.85-17.18,17-10.48,10.78-20.9,22.39-31.88,35.5a677.66,677.66,0,0,0-55.14,76.34c-7.9,12.83-15.69,26.52-23.12,40.65-8.08,15.85-14.36,29.22-19.67,41.87A543.73,543.73,0,0,0,792,2097a10.07,10.07,0,0,0,18.8,6.82l.28-.55a516.89,516.89,0,0,1,45.29-73.82c7.57-10.34,16.06-21,26.66-33.36,10.47-11.89,20-22,29.18-31.15A605.55,605.55,0,0,1,976.15,1910c12.27-9.06,23.46-16.76,34.25-23.56,4.26-2.71,8.56-5.33,12.84-7.84l3.9-2.29,4.51-.26a761.88,761.88,0,0,1,83.62-.39,684.43,684.43,0,0,1,96,11.67,618.47,618.47,0,0,1,92.57,25.64c15.07,5.52,29.75,11.67,43.59,18.29,6.85,3.23,13.78,6.76,20.53,10.45,3.33,1.82,6.56,3.67,9.62,5.47l6.3,3.94,6.15,3,.38,1.13A51.63,51.63,0,0,0,1445,1867.8l-7.77-5.13-6.77-4.16c-4-2.38-8.36-4.87-12.63-7.18-8.5-4.67-16.94-9-25.9-13.23-16.8-8-34.46-15.43-52.51-22.06a727.31,727.31,0,0,0-108.21-30,790.47,790.47,0,0,0-110.49-13.5,880.18,880.18,0,0,0-110.85,1.42A50.57,50.57,0,0,0,986,1782Z" transform="translate(-530.09 -641.22)"/><path class="cls-2" d="M1466.63,1673.73a.2.2,0,0,0,0-.1l-.13-.15-.44-.71-1.14-1.76-2.66-4c-1.94-2.74-4-5.6-6.16-8.46-4.28-5.68-8.92-11.48-13.76-17.17-9.64-11.41-20-22.58-31-33.33a596.93,596.93,0,0,0-71.46-59.5,662.25,662.25,0,0,0-80.52-48.83,736.82,736.82,0,0,0-74.48-33.21q-7.08.75-14.33,1.78c-13.07,1.82-26.3,4.29-39.51,7.13a585,585,0,0,0-78.27,23c-12.8,4.78-25.47,10.13-38,15.78-12.44,5.85-24.82,12-36.84,18.82a498.29,498.29,0,0,0-69,46.84l-.52.42a28.84,28.84,0,0,1-41-40,559.81,559.81,0,0,1,63.94-70.1C943,1459.29,955.22,1449,967.71,1439q18.91-14.76,38.9-28.33a692.56,692.56,0,0,1,84-48.18c14.59-7,29.53-13.72,44.92-19.79,7.67-3,15.47-6,23.44-8.73,4-1.38,8.07-2.75,12.26-4.07l6.47-1.93,3.4-1,1.9-.52c.67-.16,1.21-.3,2.46-.55a69.17,69.17,0,0,1,34.29,3.24l.41.14a892.21,892.21,0,0,1,103.77,45.27,806.85,806.85,0,0,1,97.48,59.2,741.8,741.8,0,0,1,88.53,73.76c13.85,13.59,27.15,27.84,39.94,43,6.4,7.55,12.63,15.31,18.77,23.49,3.08,4,6.14,8.27,9.18,12.59l4.63,6.85,2.41,3.69,3,4.93a70.41,70.41,0,0,1-121.23,71.63Z" transform="translate(-530.09 -641.22)"/><g class="cls-3"><path class="cls-4" d="M1562.78,1698.46a70.39,70.39,0,0,0,27.9-91c-1.49,1.24-3,2.48-4.58,3.62a72.94,72.94,0,0,1-101.42-16.87s0,0,0-.09l-.15-.15-.52-.69-1.33-1.72-3.1-3.84c-2.25-2.66-4.64-5.42-7.12-8.18-4.92-5.47-10.23-11-15.74-16.47-11-10.91-22.7-21.49-35-31.59a618.14,618.14,0,0,0-79.06-55,683.91,683.91,0,0,0-87.45-43.14q-31.9-13.11-65.2-23.23a56.23,56.23,0,0,0-29.09-1.24l-.15,0c-13.31,3.06-26.74,6.79-40.12,10.91a604.87,604.87,0,0,0-78.66,30.72c-12.78,6.07-25.37,12.73-37.78,19.69-12.3,7.15-24.52,14.64-36.31,22.72a515.66,515.66,0,0,0-67,54.52l-.49.48a29.87,29.87,0,0,1-38,2.8A28.86,28.86,0,0,0,874.3,1582c10.4,7.17,24.43,6.13,34.22-1.84l.35-.28a498.29,498.29,0,0,1,69-46.84c12-6.79,24.4-13,36.84-18.82,12.52-5.65,25.19-11,38-15.78a585,585,0,0,1,78.27-23c13.21-2.84,26.44-5.31,39.51-7.13q7.24-1,14.33-1.78a736.82,736.82,0,0,1,74.48,33.21,662.25,662.25,0,0,1,80.52,48.83,596.93,596.93,0,0,1,71.46,59.5c11,10.75,21.38,21.92,31,33.33,4.84,5.69,9.48,11.49,13.76,17.17,2.16,2.86,4.22,5.72,6.16,8.46l2.66,4,1.14,1.76.44.71.13.15a.2.2,0,0,1,0,.1A70.43,70.43,0,0,0,1562.78,1698.46Z" transform="translate(-530.09 -641.22)"/></g><g class="cls-5"><path class="cls-6" d="M918.61,1501.89c11.69-10.88,23.92-21.14,36.41-31.13q18.91-14.76,38.9-28.33a694.66,694.66,0,0,1,84-48.18c14.6-7,29.53-13.72,44.92-19.79,7.67-3,15.47-6,23.44-8.72,4-1.39,8.07-2.76,12.26-4.08l6.47-1.93,3.4-1,1.9-.51c.67-.17,1.21-.3,2.46-.55a69.1,69.1,0,0,1,34.3,3.23l.41.14a892.81,892.81,0,0,1,103.76,45.27,806.85,806.85,0,0,1,97.48,59.2,741.8,741.8,0,0,1,88.53,73.76c13.85,13.6,27.15,27.84,39.94,43,6.4,7.55,12.63,15.31,18.77,23.49,3.08,4,6.14,8.27,9.18,12.59l4.63,6.85,2.41,3.69,3,4.93a70.11,70.11,0,0,1,9,45.2,70.41,70.41,0,0,0,3.71-76.92l-3-4.93-2.41-3.69-4.63-6.85c-3-4.32-6.1-8.55-9.18-12.59-6.14-8.18-12.37-15.94-18.77-23.49-12.79-15.13-26.09-29.38-39.94-43a741.8,741.8,0,0,0-88.53-73.76,806.85,806.85,0,0,0-97.48-59.2,892.21,892.21,0,0,0-103.77-45.27l-.41-.14a69.17,69.17,0,0,0-34.29-3.24c-1.25.25-1.79.39-2.46.55l-1.9.52-3.4,1-6.47,1.93c-4.19,1.32-8.25,2.69-12.26,4.07-8,2.77-15.77,5.7-23.44,8.73-15.39,6.07-30.33,12.74-44.92,19.79a692.56,692.56,0,0,0-84,48.18q-20,13.51-38.9,28.33c-12.49,10-24.72,20.25-36.41,31.13a559.81,559.81,0,0,0-63.94,70.1,28.86,28.86,0,0,0-5.48,22.73A558.28,558.28,0,0,1,918.61,1501.89Z" transform="translate(-530.09 -641.22)"/></g><path class="cls-4" d="M1527.37,1726.84a89.35,89.35,0,0,1-76.74-43.28l-4-6c-1.6-2.27-3.54-5-5.58-7.65-4.15-5.5-8.55-11-13.07-16.3-9.15-10.85-19.18-21.63-29.86-32.09a580.45,580.45,0,0,0-69.24-57.64,647,647,0,0,0-78.12-47.38,720.65,720.65,0,0,0-68.43-30.77q-4.57.55-9.24,1.21c-11.76,1.64-24.24,3.89-38.18,6.89a566.94,566.94,0,0,0-75.71,22.22c-11.34,4.23-23.39,9.23-36.77,15.28-13.63,6.4-24.94,12.18-35.34,18a482.19,482.19,0,0,0-66.46,45.11l-.47.39a47.62,47.62,0,0,1-67.7-66,580.5,580.5,0,0,1,66.08-72.44c10.73-10,22.63-20.17,37.42-32,13.47-10.51,26.91-20.29,40.12-29.22a714.78,714.78,0,0,1,86.3-49.53c16.29-7.86,31.39-14.52,46.2-20.35,8.42-3.33,16.34-6.28,24.17-9,4.22-1.45,8.44-2.88,12.8-4.25l12.49-3.62c1.27-.33,2-.51,3.71-.85l.72-.12a88.24,88.24,0,0,1,43.58,4.1,917.94,917.94,0,0,1,106.41,46.38,829,829,0,0,1,99.72,60.57,764.23,764.23,0,0,1,90.84,75.68c14.55,14.29,28.39,29.18,41.14,44.27,6.91,8.16,13.29,16.12,19.44,24.32,3.14,4.13,6.34,8.55,9.52,13.06l7.68,11.52,3,4.93c25.09,42.75,10.84,97.5-31.57,122.38A88.59,88.59,0,0,1,1527.37,1726.84ZM1486,1668.9a51.63,51.63,0,0,0,85.7-57.3l-5-7.87-4.45-6.58c-2.71-3.84-5.63-7.88-8.58-11.75-5.78-7.69-11.69-15.09-18.15-22.71-12-14.22-25.06-28.25-38.77-41.71a725.8,725.8,0,0,0-86.28-71.88,790.37,790.37,0,0,0-95.13-57.77A879.12,879.12,0,0,0,1213.73,1347a50.6,50.6,0,0,0-25-2.53c-.56.11-.85.19-1.21.28l-11,3.19c-3.78,1.19-7.67,2.51-11.52,3.83-7.28,2.53-14.71,5.3-22.65,8.44-14,5.5-28.23,11.79-43.66,19.23a677.63,677.63,0,0,0-81.67,46.88c-12.45,8.41-25.19,17.68-37.8,27.53-13.86,11.09-25.1,20.69-35.16,30.06a543.83,543.83,0,0,0-61.86,67.81,10.18,10.18,0,0,0,.18,12.49,10.08,10.08,0,0,0,14.15,1.47l.48-.39a518,518,0,0,1,71.66-48.64c11.17-6.31,23.28-12.5,38-19.43,14.43-6.51,27.24-11.83,39.43-16.38a607.29,607.29,0,0,1,80.83-23.72c14.88-3.2,28.25-5.61,40.91-7.37,5-.71,10-1.33,14.92-1.86l4.5-.48,4.23,1.62a761.38,761.38,0,0,1,76.36,34.06,684.07,684.07,0,0,1,82.72,50.16,617.7,617.7,0,0,1,73.81,61.47c11.5,11.26,22.34,22.92,32.2,34.61,4.95,5.81,9.82,11.88,14.41,18,2.28,3,4.47,6,6.52,9l4.29,6.45,4.18,5.49Z" transform="translate(-530.09 -641.22)"/><path class="cls-2" d="M2464.45,2460.64a.16.16,0,0,1,.09,0l.14.14.66.52,1.64,1.31,3.66,3c2.54,2.21,5.16,4.56,7.79,7,5.21,4.83,10.51,10,15.68,15.44,10.37,10.74,20.41,22.24,30,34.26a597.78,597.78,0,0,1,51.9,77.15,662,662,0,0,1,40.36,85.08,742.64,742.64,0,0,1,25.44,77.48q-1.49,7-3.24,14.08c-3.15,12.81-6.95,25.72-11.12,38.58a586.23,586.23,0,0,1-30.84,75.51c-6,12.25-12.67,24.31-19.57,36.18-7.08,11.78-14.5,23.47-22.48,34.73a497.23,497.23,0,0,1-53.64,63.87l-.47.47a28.85,28.85,0,0,0,35.62,44.87,560.43,560.43,0,0,0,76.26-56.46c12-10.51,23.47-21.64,34.68-33s21.83-23.46,32.15-35.81a695.18,695.18,0,0,0,56.51-78.6c8.49-13.8,16.66-28,24.26-42.66,3.8-7.33,7.51-14.79,11.07-22.44,1.79-3.84,3.57-7.74,5.31-11.78l2.58-6.24,1.31-3.28.71-1.83c.23-.66.42-1.18.79-2.4a69.08,69.08,0,0,0,.29-34.44l-.1-.43a893.61,893.61,0,0,0-34.45-107.84,807.23,807.23,0,0,0-48.94-103,741.27,741.27,0,0,0-64.34-95.6c-12.11-15.16-24.92-29.85-38.67-44.11-6.86-7.14-13.94-14.13-21.45-21.07-3.71-3.48-7.6-7-11.59-10.42l-6.34-5.3-3.42-2.77-4.6-3.52a70.41,70.41,0,0,0-83.63,113.29Z" transform="translate(-530.09 -641.22)"/><g class="cls-3"><path class="cls-4" d="M2449.66,2362.46A70.39,70.39,0,0,1,2543,2344c-1.39,1.35-2.77,2.71-4.06,4.19a72.92,72.92,0,0,0,6.42,102.6.22.22,0,0,1,.1.06l.13.16.63.59,1.58,1.5,3.5,3.48c2.41,2.5,4.91,5.16,7.41,7.91,4.94,5.45,9.94,11.31,14.78,17.34,9.73,12,19.06,24.78,27.85,38a618.34,618.34,0,0,1,46.61,84.25,687.15,687.15,0,0,1,34,91.4q9.78,33.08,16.45,67.23a56.16,56.16,0,0,1-1.73,29.07l0,.14c-4.4,12.93-9.48,25.91-14.94,38.8a606.16,606.16,0,0,1-38.59,75.12c-7.35,12.09-15.26,23.93-23.44,35.56-8.37,11.52-17.07,22.9-26.31,33.81a515.64,515.64,0,0,1-61.07,61.06l-.53.44a29.87,29.87,0,0,0-6.66,37.56,28.86,28.86,0,0,1-29.77-15.06c-6.08-11.07-3.61-24.92,5.32-33.85l.31-.32a497.23,497.23,0,0,0,53.64-63.87c8-11.26,15.4-23,22.48-34.73,6.9-11.87,13.52-23.93,19.57-36.18a586.23,586.23,0,0,0,30.84-75.51c4.17-12.86,8-25.77,11.12-38.58q1.76-7.11,3.24-14.08a742.64,742.64,0,0,0-25.44-77.48,662,662,0,0,0-40.36-85.08,597.78,597.78,0,0,0-51.9-77.15c-9.58-12-19.62-23.52-30-34.26-5.17-5.4-10.47-10.61-15.68-15.44-2.63-2.44-5.25-4.79-7.79-7l-3.66-3-1.64-1.31-.66-.52-.14-.14a.16.16,0,0,0-.09,0A70.44,70.44,0,0,1,2449.66,2362.46Z" transform="translate(-530.09 -641.22)"/></g><g class="cls-5"><path class="cls-6" d="M2579.47,3023.32c12-10.51,23.47-21.63,34.68-33q16.62-17.33,32.15-35.81a693.08,693.08,0,0,0,56.5-78.61c8.5-13.8,16.66-28,24.27-42.66,3.8-7.32,7.51-14.78,11.07-22.43,1.79-3.85,3.57-7.74,5.31-11.78l2.58-6.24,1.31-3.29.71-1.83c.23-.65.42-1.17.79-2.39a69,69,0,0,0,.28-34.45l-.09-.42a893.61,893.61,0,0,0-34.45-107.84,808,808,0,0,0-48.94-103,742.2,742.2,0,0,0-64.34-95.59c-12.11-15.16-24.92-29.85-38.68-44.12-6.85-7.13-13.93-14.12-21.44-21.07-3.71-3.47-7.6-6.94-11.59-10.42l-6.34-5.3-3.43-2.77-4.59-3.52a70.11,70.11,0,0,0-44.05-13.54,70.4,70.4,0,0,1,76.9,4.16l4.6,3.52,3.42,2.77,6.34,5.3c4,3.47,7.88,6.94,11.59,10.42,7.51,6.94,14.59,13.93,21.45,21.07,13.75,14.26,26.56,29,38.67,44.11a741.27,741.27,0,0,1,64.34,95.6,807.23,807.23,0,0,1,48.94,103A893.61,893.61,0,0,1,2781.88,2741l.1.43a69.08,69.08,0,0,1-.29,34.44c-.37,1.22-.56,1.74-.79,2.4l-.71,1.83-1.31,3.28-2.58,6.24c-1.74,4-3.52,7.94-5.31,11.78-3.56,7.65-7.27,15.11-11.07,22.44-7.6,14.68-15.77,28.86-24.26,42.66a695.18,695.18,0,0,1-56.51,78.6q-15.48,18.52-32.15,35.81c-11.21,11.4-22.66,22.53-34.68,33a560.43,560.43,0,0,1-76.26,56.46,28.86,28.86,0,0,1-23.17,3.13A557.82,557.82,0,0,0,2579.47,3023.32Z" transform="translate(-530.09 -641.22)"/></g><path class="cls-4" d="M2520.91,3093.5a47.65,47.65,0,0,1-33.8-81.19l.49-.49a478.41,478.41,0,0,0,51.59-61.43c6.87-9.69,14-20.67,21.75-33.6,7.23-12.44,13.44-23.92,18.84-34.83a567.92,567.92,0,0,0,29.81-73c4.41-13.57,7.93-25.76,10.74-37.21q1.13-4.6,2.15-9.1a721.17,721.17,0,0,0-23.59-71.13,648.94,648.94,0,0,0-39.26-82.76,580.26,580.26,0,0,0-50.19-74.6c-9.31-11.69-19-22.77-28.84-33-4.84-5.06-9.85-10-14.94-14.71-2.48-2.31-5-4.52-7.34-6.6l-5.32-4.35a89.18,89.18,0,0,1,106.18-143.3l8.72,6.82,6.59,5.52c4.44,3.86,8.51,7.49,12.37,11.11,7.45,6.89,14.73,14,22.15,21.76,13.67,14.18,27.06,29.46,39.8,45.41a763.13,763.13,0,0,1,66,98,828.73,828.73,0,0,1,50.13,105.49,916.54,916.54,0,0,1,35.16,110.09l.18.76a88.08,88.08,0,0,1-.43,43.48l-.21.72c-.48,1.59-.73,2.28-1,3.12l-2.29,5.83-2.66,6.44c-1.92,4.45-3.77,8.5-5.62,12.5-3.56,7.63-7.3,15.2-11.46,23.2-7.31,14.13-15.47,28.48-24.93,43.85a715.13,715.13,0,0,1-58,80.74c-10.27,12.28-21.36,24.65-33,36.83-13.44,13.66-24.78,24.47-35.86,34.17a581.89,581.89,0,0,1-78.76,58.3A47.49,47.49,0,0,1,2520.91,3093.5Zm-43.6-646.62,5.35,4.4c3,2.6,5.77,5.08,8.55,7.67,5.63,5.21,11.17,10.67,16.47,16.21,10.59,11,21.07,23,31.09,35.54a616.57,616.57,0,0,1,53.53,79.54,684.78,684.78,0,0,1,41.57,87.62,763,763,0,0,1,26.05,79.35l1.18,4.37-.94,4.43q-1.54,7.27-3.38,14.69c-3,12.32-6.79,25.37-11.49,39.86a606,606,0,0,1-31.83,78c-5.8,11.73-12.4,23.93-20.2,37.35-8.41,14-16,25.73-23.39,36.15a517.47,517.47,0,0,1-55.62,66.23l-.5.5a10,10,0,0,0-2.91,7.13,9.91,9.91,0,0,0,3,7.08,10,10,0,0,0,12.39,1.45,543.51,543.51,0,0,0,73.72-54.57c10.41-9.11,21.11-19.31,33.71-32.12,10.93-11.4,21.46-23.13,31.13-34.69a676.91,676.91,0,0,0,54.93-76.42c9-14.56,16.67-28.11,23.57-41.43,3.92-7.55,7.42-14.65,10.73-21.74,1.69-3.65,3.41-7.4,5.08-11.27l4.33-10.7s.08-.26.25-.79a49.83,49.83,0,0,0,.11-24.77l-.16-.71A878.55,878.55,0,0,0,2730,2640a791.24,791.24,0,0,0-47.82-100.63,726.45,726.45,0,0,0-62.66-93.11C2607.29,2431,2595,2417,2582,2403.46c-6.93-7.22-13.68-13.85-20.68-20.32-3.63-3.41-7.36-6.72-11.17-10l-13.45-10.84c-22.65-16.61-55-11.65-71.86,11.31a51.83,51.83,0,0,0,6.4,68.3h1.32Z" transform="translate(-530.09 -641.22)"/><path class="cls-2" d="M2523.11,2285.9a.2.2,0,0,1,.09-.06l.2,0,.79-.27,2-.68,4.54-1.45c3.22-1,6.61-1.91,10.08-2.81,6.88-1.79,14.12-3.47,21.45-4.92,14.63-3,29.73-5.25,45-6.87a598.28,598.28,0,0,1,93-2.29,662.84,662.84,0,0,1,93.44,11.7,738.64,738.64,0,0,1,79,20.21q5.09,5,10.13,10.29c9.12,9.54,17.95,19.69,26.55,30.12a584.16,584.16,0,0,1,47.1,66.59c7.07,11.69,13.69,23.75,20,35.95,6.12,12.31,12,24.84,17.2,37.63a497,497,0,0,1,25,79.56l.15.65a28.84,28.84,0,0,0,57-5.92,561.38,561.38,0,0,0-6.61-94.65c-2.41-15.78-5.63-31.42-9.22-47q-5.67-23.31-12.91-46.35a694,694,0,0,0-35.91-89.9c-7.07-14.58-14.63-29.09-22.93-43.39-4.13-7.15-8.43-14.28-13-21.4-2.29-3.58-4.62-7.17-7.09-10.81l-3.87-5.53-2.07-2.87-1.16-1.58c-.43-.55-.76-1-1.59-2a69,69,0,0,0-28.9-18.75l-.4-.15A893.89,893.89,0,0,0,2820.7,2140a807.7,807.7,0,0,0-113.17-14.1,740.22,740.22,0,0,0-115.2,2.87c-19.29,2.06-38.56,5-58,8.89-9.7,1.94-19.41,4.16-29.3,6.76-4.92,1.26-9.94,2.68-15,4.17l-7.87,2.49-4.18,1.41-5.44,2a70.41,70.41,0,0,0,50.57,131.42Z" transform="translate(-530.09 -641.22)"/><g class="cls-3"><path class="cls-4" d="M2432.38,2245.59A70.38,70.38,0,0,1,2467,2157c.39,1.9.8,3.79,1.35,5.68a72.92,72.92,0,0,0,90,49.74.15.15,0,0,1,.1,0l.2,0,.84-.21,2.12-.52,4.81-1.09c3.41-.69,7-1.37,10.65-2,7.26-1.23,14.88-2.31,22.57-3.14,15.36-1.75,31.14-2.75,47-3.05a619.57,619.57,0,0,1,96.1,6,686.61,686.61,0,0,1,95.34,20.47c22.1,6.36,44,13.84,65.53,22.27a56.09,56.09,0,0,1,23.58,17.09l.1.12c8.54,10.65,16.75,21.91,24.68,33.45a605.7,605.7,0,0,1,42.6,72.92c6.25,12.69,12,25.73,17.39,38.88,5.21,13.25,10.14,26.71,14.36,40.36a514.61,514.61,0,0,1,18.66,84.33l.09.68a29.86,29.86,0,0,0,28.09,25.8,28.87,28.87,0,0,1-28.7,17c-12.6-.83-23-10.36-25.69-22.68l-.1-.44a497,497,0,0,0-25-79.56c-5.21-12.79-11.08-25.32-17.2-37.63-6.3-12.2-12.92-24.26-20-35.95a584.16,584.16,0,0,0-47.1-66.59c-8.6-10.43-17.43-20.58-26.55-30.12q-5-5.3-10.13-10.29a738.64,738.64,0,0,0-79-20.21,662.84,662.84,0,0,0-93.44-11.7,598.28,598.28,0,0,0-93,2.29c-15.27,1.62-30.37,3.9-45,6.87-7.33,1.45-14.57,3.13-21.45,4.92-3.47.9-6.86,1.86-10.08,2.81l-4.54,1.45-2,.68-.79.27-.2,0a.2.2,0,0,0-.09.06A70.43,70.43,0,0,1,2432.38,2245.59Z" transform="translate(-530.09 -641.22)"/></g><g class="cls-5"><path class="cls-6" d="M3059.42,2491.38c-2.41-15.78-5.63-31.41-9.22-47-3.78-15.55-8-31-12.91-46.36a693.66,693.66,0,0,0-35.91-89.9c-7.07-14.58-14.63-29.08-22.93-43.39-4.13-7.14-8.43-14.28-13-21.4-2.29-3.57-4.61-7.17-7.08-10.8l-3.88-5.53-2.06-2.88-1.17-1.57c-.42-.55-.76-1-1.59-2a69,69,0,0,0-28.89-18.76l-.41-.14A893.74,893.74,0,0,0,2811,2172.76a807.65,807.65,0,0,0-113.18-14.1,741.31,741.31,0,0,0-115.19,2.86c-19.29,2.07-38.57,5-58,8.9-9.7,1.94-19.4,4.16-29.29,6.76-4.93,1.26-9.95,2.67-15,4.17l-7.88,2.49-4.17,1.4-5.44,2a70,70,0,0,0-35.1,29.86,70.39,70.39,0,0,1,44.84-62.61l5.44-2,4.18-1.41,7.87-2.49c5.08-1.49,10.1-2.91,15-4.17,9.89-2.6,19.6-4.82,29.3-6.76,19.42-3.92,38.69-6.83,58-8.89a740.22,740.22,0,0,1,115.2-2.87A807.7,807.7,0,0,1,2820.7,2140a893.89,893.89,0,0,1,109.46,28.93l.4.15a69,69,0,0,1,28.9,18.75c.83,1,1.16,1.41,1.59,2l1.16,1.58,2.07,2.87,3.87,5.53c2.47,3.64,4.8,7.23,7.09,10.81,4.53,7.12,8.83,14.25,13,21.4,8.3,14.3,15.86,28.81,22.93,43.39a694,694,0,0,1,35.91,89.9q7.27,23,12.91,46.35c3.59,15.59,6.81,31.23,9.22,47a561.38,561.38,0,0,1,6.61,94.65,28.89,28.89,0,0,1-9.82,21.23A558.14,558.14,0,0,0,3059.42,2491.38Z" transform="translate(-530.09 -641.22)"/></g><path class="cls-4" d="M3046.83,2600.51a47.67,47.67,0,0,1-46.34-37.17l-.15-.65a480.76,480.76,0,0,0-24.07-76.55c-4.53-11.12-9.81-22.67-16.65-36.41-6.62-12.81-13-24.22-19.24-34.59a566.6,566.6,0,0,0-45.55-64.4c-9-11-17.42-20.48-25.61-29.06q-3.25-3.43-6.52-6.7a719.21,719.21,0,0,0-72.65-18.34,646.61,646.61,0,0,0-90.89-11.39,578.7,578.7,0,0,0-89.89,2.22c-14.88,1.57-29.43,3.79-43.29,6.6-6.89,1.36-13.73,2.93-20.44,4.68-3.28.86-6.47,1.76-9.51,2.65l-6.67,2.21A89.18,89.18,0,0,1,2465.74,2137l10.46-3.68,8.17-2.6c5.65-1.67,10.89-3.14,16-4.46,9.79-2.57,19.73-4.86,30.26-7,19.33-3.91,39.43-7,59.68-9.16a765,765,0,0,1,118.13-3,829.53,829.53,0,0,1,115.89,14.44,914.9,914.9,0,0,1,111.73,29.53l.79.28a88,88,0,0,1,36.39,23.72l.46.52c1,1.18,1.47,1.78,2,2.42l3.81,5.23,4,5.71c2.72,4,5.14,7.74,7.51,11.46,4.46,7,8.83,14.21,13.41,22.11,8,13.77,15.7,28.37,23.57,44.6a716.55,716.55,0,0,1,36.89,92.36c4.83,15.23,9.28,31.24,13.28,47.65,4.3,18.72,7.32,34.1,9.53,48.62a580.92,580.92,0,0,1,6.83,97.75,47.49,47.49,0,0,1-37.14,45.76A48.27,48.27,0,0,1,3046.83,2600.51Zm-379.27-353.58q16.5,0,33.57.83a684.83,684.83,0,0,1,96.22,12,759.86,759.86,0,0,1,80.92,20.69l4.32,1.35,3.23,3.18q5.31,5.2,10.57,10.74c8.81,9.23,17.8,19.42,27.44,31.13a604.08,604.08,0,0,1,48.64,68.75c6.75,11.15,13.49,23.28,20.64,37.1,7.39,14.85,13,27.22,17.91,39.16a518.67,518.67,0,0,1,25.94,82.51l.15.66a10.07,10.07,0,0,0,19.9-2,543,543,0,0,0-6.39-91.5c-2.09-13.65-4.93-28.14-9-45.7-3.74-15.35-8-30.54-12.52-44.89a678.58,678.58,0,0,0-34.91-87.4c-7.46-15.38-14.75-29.17-22.27-42.15-4.31-7.45-8.42-14.23-12.56-20.72-2.17-3.4-4.4-6.85-6.77-10.34l-6.54-9.19c-.23-.3-.42-.54-.68-.85a50,50,0,0,0-20.83-13.42l-.74-.26a876.69,876.69,0,0,0-106.77-28.19,789.39,789.39,0,0,0-110.57-13.77,724.68,724.68,0,0,0-112.19,2.79c-19.08,2-38,4.94-56.24,8.62-9.83,2-19.06,4.1-28.25,6.51-4.83,1.24-9.63,2.6-14.47,4l-16.37,5.5c-26.19,10.18-39.41,40.15-29.1,66.68a51.84,51.84,0,0,0,60.95,31.34l.49-.78,8.8-2.27,4.9-1.57c3.79-1.12,7.38-2.13,11.05-3.09,7.42-1.93,15-3.67,22.53-5.16,14.93-3,30.67-5.43,46.68-7.13A583.82,583.82,0,0,1,2667.56,2246.93Z" transform="translate(-530.09 -641.22)"/><path class="cls-2" d="M2655.16,1967.66a.13.13,0,0,1,.07-.08l.18-.09.7-.46,1.76-1.14,4.05-2.51c2.9-1.7,6-3.45,9.1-5.17,6.24-3.41,12.86-6.8,19.61-10,13.48-6.43,27.56-12.32,42-17.6a597.67,597.67,0,0,1,89.61-24.83,663.51,663.51,0,0,1,93.48-11.36,739.8,739.8,0,0,1,81.55.39q6.15,3.62,12.33,7.53c11.16,7,22.2,14.72,33.08,22.76a585,585,0,0,1,61.87,53.14c9.7,9.62,19.05,19.71,28.13,30,8.93,10.45,17.67,21.18,25.83,32.32a498.4,498.4,0,0,1,43.62,71.09l.29.6a28.84,28.84,0,0,0,53.83-19.6,559.85,559.85,0,0,0-29.42-90.2c-6.17-14.73-13.1-29.11-20.37-43.36q-11.16-21.24-23.79-41.82a694.2,694.2,0,0,0-56.69-78.48c-10.4-12.42-21.26-24.65-32.79-36.51q-8.61-8.9-17.77-17.61c-3.09-2.91-6.22-5.83-9.5-8.76l-5.1-4.42-2.7-2.29-1.52-1.24c-.55-.43-1-.77-2-1.52A69.09,69.09,0,0,0,3022,1755.3l-.43,0a894,894,0,0,0-113.21-1.45,805.87,805.87,0,0,0-113.2,13.84,740.21,740.21,0,0,0-111.05,30.78c-18.21,6.69-36.2,14.2-54.08,22.73-8.94,4.24-17.81,8.75-26.78,13.67-4.46,2.42-9,5-13.55,7.7l-7,4.33-3.71,2.38-4.8,3.25a70.41,70.41,0,0,0,81,115.18Z" transform="translate(-530.09 -641.22)"/><g class="cls-3"><path class="cls-4" d="M2557.35,1950.61a70.36,70.36,0,0,1,12-94.36c.84,1.74,1.69,3.48,2.68,5.18a72.93,72.93,0,0,0,99.37,26.37.18.18,0,0,1,.08-.07l.19-.08.76-.41,1.93-1,4.4-2.22c3.14-1.5,6.45-3,9.85-4.52,6.74-3,13.87-5.86,21.13-8.54,14.48-5.43,29.54-10.24,44.89-14.39a619.5,619.5,0,0,1,94.67-17.55,686.38,686.38,0,0,1,97.46-3.32c23,.79,46,2.74,69,5.67a56,56,0,0,1,27,10.84l.13.09c10.87,8.26,21.57,17.19,32.07,26.45a606.11,606.11,0,0,1,59.05,60.38c9.14,10.79,17.88,22.05,26.32,33.49,8.27,11.58,16.32,23.44,23.74,35.65a515.22,515.22,0,0,1,38.6,77.26l.26.64a29.84,29.84,0,0,0,33.51,18.2,28.85,28.85,0,0,1-23.7,23.48c-12.43,2.26-24.79-4.47-30.43-15.76l-.2-.4a498.4,498.4,0,0,0-43.62-71.09c-8.16-11.14-16.9-21.87-25.83-32.32-9.08-10.3-18.43-20.39-28.13-30a585,585,0,0,0-61.87-53.14c-10.88-8-21.92-15.73-33.08-22.76q-6.18-3.91-12.33-7.53a739.8,739.8,0,0,0-81.55-.39,663.51,663.51,0,0,0-93.48,11.36,597.67,597.67,0,0,0-89.61,24.83c-14.43,5.28-28.51,11.17-42,17.6-6.75,3.19-13.37,6.58-19.61,10-3.14,1.72-6.2,3.47-9.1,5.17l-4.05,2.51-1.76,1.14-.7.46-.18.09a.13.13,0,0,0-.07.08A70.43,70.43,0,0,1,2557.35,1950.61Z" transform="translate(-530.09 -641.22)"/></g><g class="cls-5"><path class="cls-6" d="M3225.33,2036.6c-6.17-14.72-13.1-29.11-20.37-43.36q-11.16-21.23-23.79-41.82a694.2,694.2,0,0,0-56.69-78.48c-10.4-12.42-21.26-24.65-32.79-36.51q-8.61-8.88-17.78-17.61c-3.08-2.9-6.21-5.83-9.49-8.75l-5.11-4.43-2.7-2.28-1.51-1.25c-.55-.43-1-.77-2-1.51a69,69,0,0,0-32.59-11.17l-.43,0a895.7,895.7,0,0,0-113.2-1.45,809,809,0,0,0-113.21,13.84,740.46,740.46,0,0,0-111,30.79c-18.21,6.68-36.2,14.19-54.08,22.72-8.94,4.24-17.81,8.75-26.78,13.68-4.47,2.41-9,5-13.55,7.7l-7,4.33-3.72,2.37-4.79,3.25a70.1,70.1,0,0,0-26.79,37.5,70.42,70.42,0,0,1,28.28-71.63l4.8-3.25,3.71-2.38,7-4.33c4.56-2.68,9.09-5.28,13.55-7.7,9-4.92,17.84-9.43,26.78-13.67,17.88-8.53,35.87-16,54.08-22.73a740.21,740.21,0,0,1,111.05-30.78,805.87,805.87,0,0,1,113.2-13.84,894,894,0,0,1,113.21,1.45l.43,0a69.09,69.09,0,0,1,32.58,11.16c1,.75,1.47,1.09,2,1.52l1.52,1.24,2.7,2.29,5.1,4.42c3.28,2.93,6.41,5.85,9.5,8.76q9.18,8.71,17.77,17.61c11.53,11.86,22.39,24.09,32.79,36.51a694.2,694.2,0,0,1,56.69,78.48q12.66,20.55,23.79,41.82c7.27,14.25,14.2,28.63,20.37,43.36a559.85,559.85,0,0,1,29.42,90.2,28.84,28.84,0,0,1-4.36,23A558.7,558.7,0,0,0,3225.33,2036.6Z" transform="translate(-530.09 -641.22)"/></g><path class="cls-4" d="M3228.25,2146.89a47.7,47.7,0,0,1-42.6-26.16l-.36-.75a480.55,480.55,0,0,0-41.89-68.25c-7.09-9.68-15-19.6-25-31.27-9.53-10.81-18.45-20.33-27.08-28.88a567.43,567.43,0,0,0-59.84-51.4c-11.45-8.45-21.89-15.64-31.9-22-2.67-1.69-5.31-3.33-7.95-4.92a721.12,721.12,0,0,0-74.94-.13,646,646,0,0,0-90.92,11,579.87,579.87,0,0,0-86.66,24c-14.06,5.15-27.63,10.84-40.39,16.93-6.33,3-12.59,6.18-18.69,9.52-3,1.62-5.85,3.27-8.58,4.88l-5.88,3.72a89.18,89.18,0,0,1-102.26-146.12l9.23-6.12,7.31-4.5c5.07-3,9.8-5.7,14.46-8.23,9-4.91,18-9.55,27.66-14.12,17.79-8.49,36.53-16.36,55.66-23.39a764.21,764.21,0,0,1,113.87-31.58,828.88,828.88,0,0,1,115.93-14.17,919,919,0,0,1,115.55,1.48l.92.09a88,88,0,0,1,41,14.15l.6.41c1.42,1,2,1.48,2.75,2.07l10,8.5c3.62,3.22,6.87,6.25,10.09,9.28,6.06,5.75,12.06,11.69,18.37,18.2,11.08,11.39,22.11,23.68,33.71,37.53a717.11,717.11,0,0,1,58.23,80.61c8.43,13.69,16.65,28.13,24.47,43,8.7,17,15.36,31.23,21.07,44.83a581.81,581.81,0,0,1,30.38,93.16,47.62,47.62,0,0,1-46.27,58.52Zm-276.07-272.17c15.11,0,30.55.46,46.16,1.36l4.52.26,3.9,2.29q6.42,3.76,12.88,7.86c10.76,6.79,22,14.49,34.18,23.52a604.14,604.14,0,0,1,63.89,54.87c9.27,9.18,18.76,19.3,29,31,10.79,12.62,19.28,23.24,26.89,33.63a518,518,0,0,1,45.23,73.72l.37.75a10.07,10.07,0,0,0,18.73-7,542.71,542.71,0,0,0-28.43-87.2c-5.36-12.78-11.64-26.15-19.8-42.14-7.33-13.93-15.12-27.62-23.06-40.52a678.94,678.94,0,0,0-55.11-76.28c-11-13.12-21.41-24.73-31.85-35.47-5.95-6.14-11.58-11.72-17.23-17.06-2.92-2.76-5.93-5.57-9.07-8.37l-8.77-7.49-.69-.5a49.93,49.93,0,0,0-23.46-8l-.85-.08a876.65,876.65,0,0,0-110.34-1.38,790.3,790.3,0,0,0-110.61,13.52,726.45,726.45,0,0,0-108.14,30c-18,6.62-35.69,14-52.46,22-9,4.27-17.43,8.57-25.82,13.19-4.38,2.36-8.71,4.85-13.06,7.42l-14.54,9.32c-22.93,16.23-28.46,48.51-12,71.75a51.85,51.85,0,0,0,66.68,15.62l.3-1,8-4.29,4.37-2.71c3.4-2,6.63-3.86,10-5.68,6.75-3.69,13.68-7.22,20.61-10.49,13.74-6.57,28.42-12.72,43.54-18.26a618.66,618.66,0,0,1,92.4-25.61,687.09,687.09,0,0,1,96.27-11.7Q2933.09,1874.72,2952.18,1874.72Z" transform="translate(-530.09 -641.22)"/><path class="cls-2" d="M2563.37,1673.73a.2.2,0,0,1,0-.1l.13-.15.44-.71,1.14-1.76,2.66-4c1.94-2.74,4-5.6,6.16-8.46,4.28-5.68,8.92-11.48,13.76-17.17,9.64-11.41,20.05-22.58,31-33.33a596.93,596.93,0,0,1,71.46-59.5,662.25,662.25,0,0,1,80.52-48.83,736.82,736.82,0,0,1,74.48-33.21q7.08.75,14.33,1.78c13.07,1.82,26.3,4.29,39.51,7.13a585,585,0,0,1,78.27,23c12.8,4.78,25.47,10.13,38,15.78,12.44,5.85,24.82,12,36.84,18.82a498.29,498.29,0,0,1,69,46.84l.52.42a28.84,28.84,0,0,0,41-40,559.81,559.81,0,0,0-63.94-70.1c-11.69-10.88-23.92-21.14-36.41-31.13q-18.91-14.76-38.9-28.33a692.56,692.56,0,0,0-84-48.18c-14.59-7-29.53-13.72-44.92-19.79-7.67-3-15.47-6-23.44-8.73-4-1.38-8.07-2.75-12.26-4.07l-6.47-1.93-3.4-1-1.9-.52c-.67-.16-1.21-.3-2.46-.55a69.17,69.17,0,0,0-34.29,3.24l-.41.14a892.21,892.21,0,0,0-103.77,45.27,806.85,806.85,0,0,0-97.48,59.2,741.8,741.8,0,0,0-88.53,73.76c-13.85,13.59-27.15,27.84-39.94,43-6.4,7.55-12.63,15.31-18.77,23.49-3.08,4-6.14,8.27-9.18,12.59l-4.63,6.85-2.41,3.69-3,4.93a70.41,70.41,0,0,0,121.23,71.63Z" transform="translate(-530.09 -641.22)"/><g class="cls-3"><path class="cls-4" d="M2467.22,1698.46a70.39,70.39,0,0,1-27.9-91c1.49,1.24,3,2.48,4.58,3.62a72.94,72.94,0,0,0,101.42-16.87s0,0,0-.09l.15-.15.52-.69,1.33-1.72,3.1-3.84c2.25-2.66,4.64-5.42,7.12-8.18,4.92-5.47,10.23-11,15.74-16.47,11-10.91,22.7-21.49,35-31.59a618.14,618.14,0,0,1,79.06-55,683.91,683.91,0,0,1,87.45-43.14q31.91-13.11,65.2-23.23a56.23,56.23,0,0,1,29.09-1.24l.15,0c13.31,3.06,26.74,6.79,40.12,10.91a604.87,604.87,0,0,1,78.66,30.72c12.78,6.07,25.37,12.73,37.78,19.69,12.3,7.15,24.52,14.64,36.31,22.72a515.66,515.66,0,0,1,67,54.52l.49.48a29.87,29.87,0,0,0,38,2.8A28.86,28.86,0,0,1,3155.7,1582c-10.4,7.17-24.43,6.13-34.22-1.84l-.35-.28a498.29,498.29,0,0,0-69-46.84c-12-6.79-24.4-13-36.84-18.82-12.52-5.65-25.19-11-38-15.78a585,585,0,0,0-78.27-23c-13.21-2.84-26.44-5.31-39.51-7.13q-7.25-1-14.33-1.78a736.82,736.82,0,0,0-74.48,33.21,662.25,662.25,0,0,0-80.52,48.83,596.93,596.93,0,0,0-71.46,59.5c-11,10.75-21.38,21.92-31,33.33-4.84,5.69-9.48,11.49-13.76,17.17-2.16,2.86-4.22,5.72-6.16,8.46l-2.66,4-1.14,1.76-.44.71-.13.15a.2.2,0,0,0,0,.1A70.43,70.43,0,0,1,2467.22,1698.46Z" transform="translate(-530.09 -641.22)"/></g><g class="cls-5"><path class="cls-6" d="M3111.39,1501.89c-11.69-10.88-23.92-21.14-36.41-31.13q-18.92-14.76-38.9-28.33a694.66,694.66,0,0,0-84-48.18c-14.6-7-29.53-13.72-44.92-19.79-7.67-3-15.47-6-23.44-8.72-4-1.39-8.07-2.76-12.26-4.08l-6.47-1.93-3.4-1-1.9-.51c-.67-.17-1.21-.3-2.46-.55a69.1,69.1,0,0,0-34.3,3.23l-.41.14a892.81,892.81,0,0,0-103.76,45.27,806.85,806.85,0,0,0-97.48,59.2,741.8,741.8,0,0,0-88.53,73.76c-13.85,13.6-27.15,27.84-39.94,43-6.4,7.55-12.63,15.31-18.77,23.49-3.08,4-6.14,8.27-9.18,12.59l-4.63,6.85-2.41,3.69-3,4.93a70.11,70.11,0,0,0-9,45.2,70.41,70.41,0,0,1-3.71-76.92l3-4.93,2.41-3.69,4.63-6.85c3-4.32,6.1-8.55,9.18-12.59,6.14-8.18,12.37-15.94,18.77-23.49,12.79-15.13,26.09-29.38,39.94-43a741.8,741.8,0,0,1,88.53-73.76,806.85,806.85,0,0,1,97.48-59.2,892.21,892.21,0,0,1,103.77-45.27l.41-.14a69.17,69.17,0,0,1,34.29-3.24c1.25.25,1.79.39,2.46.55l1.9.52,3.4,1,6.47,1.93c4.19,1.32,8.25,2.69,12.26,4.07,8,2.77,15.77,5.7,23.44,8.73,15.39,6.07,30.33,12.74,44.92,19.79a692.56,692.56,0,0,1,84,48.18q20,13.51,38.9,28.33c12.49,10,24.72,20.25,36.41,31.13a559.81,559.81,0,0,1,63.94,70.1,28.86,28.86,0,0,1,5.48,22.73A558.28,558.28,0,0,0,3111.39,1501.89Z" transform="translate(-530.09 -641.22)"/></g><path class="cls-4" d="M2502.63,1726.84A89.11,89.11,0,0,1,2426,1592.6l5.91-9.38,4.8-7.1c3.38-4.81,6.58-9.23,9.78-13.45,6.09-8.11,12.47-16.07,19.4-24.26,12.73-15.06,26.57-30,41.11-44.22a763.41,763.41,0,0,1,90.77-75.65,829.53,829.53,0,0,1,99.83-60.63,916,916,0,0,1,105.92-46.21l.53-.18a88.23,88.23,0,0,1,43.51-4.08l.72.12c1.7.34,2.42.52,3.34.75l12.61,3.64c4.61,1.45,8.83,2.88,13,4.31,7.88,2.74,15.8,5.69,24.24,9,14.79,5.82,29.89,12.48,46.17,20.33a717.3,717.3,0,0,1,86.25,49.49c13.28,9,26.72,18.77,40,29.13,15,12,26.87,22.16,37.65,32.19a580,580,0,0,1,66,72.39,47.61,47.61,0,0,1-67.66,66.07l-.62-.51a481.22,481.22,0,0,0-66.3-45c-10.43-5.89-21.74-11.66-35.65-18.2-13.13-5.93-25.17-10.93-36.56-15.17a565.87,565.87,0,0,0-75.7-22.22c-13.9-3-26.37-5.24-38.11-6.88-3.13-.44-6.21-.84-9.26-1.2a719.91,719.91,0,0,0-68.35,30.71,648.52,648.52,0,0,0-78.32,47.5,580.76,580.76,0,0,0-69.11,57.55c-10.7,10.48-20.73,21.26-29.83,32-4.55,5.35-8.94,10.83-13.11,16.37-2.05,2.71-4,5.39-5.81,8l-3.82,5.8A89.37,89.37,0,0,1,2502.63,1726.84ZM2461,1607.2l-2.9,4.72a51.66,51.66,0,0,0,18.58,70.35A51.82,51.82,0,0,0,2544,1669l-.06-.66,5.43-7.48,2.85-4.24c2.27-3.24,4.46-6.27,6.76-9.3,4.6-6.1,9.47-12.18,14.44-18,9.81-11.62,20.65-23.28,32.17-34.56a617.68,617.68,0,0,1,73.67-61.37,686.73,686.73,0,0,1,82.92-50.29,761.92,761.92,0,0,1,76.29-34l4.23-1.62,4.5.48q7.38.8,14.95,1.86c12.62,1.76,26,4.17,40.83,7.37a606.1,606.1,0,0,1,80.82,23.7c12.24,4.57,25.05,9.89,39.21,16.28,15,7.07,27.15,13.25,38.35,19.58a519.18,519.18,0,0,1,71.56,48.57l.63.52a10.05,10.05,0,0,0,14.05-1.57,10.18,10.18,0,0,0,.18-12.47A544.27,544.27,0,0,0,3086,1484c-10.13-9.42-21.36-19-35.4-30.25-12.43-9.7-25.17-19-37.68-27.44a676.73,676.73,0,0,0-81.63-46.83c-15.41-7.44-29.68-13.73-43.61-19.22-8-3.15-15.4-5.92-22.73-8.46-3.8-1.31-7.69-2.63-11.72-3.9l-11.06-3.21-.84-.18a50,50,0,0,0-24.65,2.41l-.48.17a877,877,0,0,0-101.47,44.27,790.18,790.18,0,0,0-95.23,57.85,725,725,0,0,0-86.22,71.83c-13.7,13.45-26.74,27.48-38.74,41.68-6.48,7.64-12.39,15-18.1,22.64-3,4-5.94,8-8.85,12.14Z" transform="translate(-530.09 -641.22)"/><ellipse class="cls-2" cx="1484.91" cy="1276.22" rx="670.9" ry="622.56"/><g class="cls-3"><path class="cls-4" d="M2398.19,1406.4c46.8,75.94,73.56,163.88,73.56,257.62,0,287-250.72,519.65-560,519.65-270.4,0-496-177.85-548.49-414.37a581.44,581.44,0,0,0-19.16,148.14c0,343.83,300.37,622.56,670.9,622.56s670.9-278.73,670.9-622.56C2685.9,1705.82,2572.08,1518.89,2398.19,1406.4Z" transform="translate(-530.09 -641.22)"/></g><g class="cls-5"><path class="cls-6" d="M2015,1294.88c-370.53,0-670.9,278.73-670.9,622.56a581.81,581.81,0,0,0,46.8,228.88,581.31,581.31,0,0,1-23.33-163.18c0-193.39,95-366.15,244.14-480.33,17-13,39.09-16.79,59.79-11.35,33.71,8.85,85.7,4.32,140-14.71,57.92-20.29,103.47-51.82,122.41-81.43,12.06-18.86,31.77-31.42,54.1-33q25-1.74,50.42-1.75c283.44,0,525.82,163.1,624.11,393.68C2585.3,1489.6,2324.67,1294.88,2015,1294.88Z" transform="translate(-530.09 -641.22)"/></g><g class="cls-7"><ellipse class="cls-6" cx="1873.14" cy="1576.79" rx="94.59" ry="40.86" transform="translate(-946.1 66.83) rotate(-19.31)"/></g><path class="cls-4" d="M2015,2558.09c-379.91,0-689-287.39-689-640.65s309.07-640.64,689-640.64,689,287.39,689,640.64S2394.91,2558.09,2015,2558.09ZM2015,1313c-360,0-652.82,271.17-652.82,604.47S1655,2521.92,2015,2521.92s652.82-271.17,652.82-604.48S2375,1313,2015,1313Z" transform="translate(-530.09 -641.22)"/><path class="cls-2" d="M2072.75,2776.3c236.81-32.29,367.56-103.3,439.44-175.6,71.51-71.92,97.15-177.93,68.95-275.36-141.73-489.7-623.85-396-623.85-396s-489.61,38.76-495.09,548.53c-1.1,101.42,52,196.7,140.14,246.86C1691,2775.15,1835.93,2808.58,2072.75,2776.3Z" transform="translate(-530.09 -641.22)"/><g class="cls-3"><path class="cls-4" d="M2581.14,2325.34c-33.12-114.45-84.84-197-144.65-256.38,41.19,51.42,76.41,117.32,100.84,201.72,26.48,91.51,2.4,191.07-64.76,258.62-67.51,67.91-190.3,134.6-412.72,164.92s-358.58-1.08-441.8-48.43c-82.8-47.11-132.65-136.6-131.62-231.85.83-76.92,13.43-142.36,33.94-198.12-34.63,69.38-57,155.37-58.17,262-1.1,101.42,52,196.7,140.14,246.86,88.61,50.42,233.59,83.85,470.41,51.57s367.56-103.3,439.44-175.6C2583.7,2528.78,2609.34,2422.77,2581.14,2325.34Z" transform="translate(-530.09 -641.22)"/></g><g class="cls-5"><path class="cls-6" d="M1957.29,1929.34s-489.61,38.76-495.09,548.53a284.14,284.14,0,0,0,27.72,125.57,284.59,284.59,0,0,1-9-74c2.32-215.36,91-346.65,192.75-426.47,13.07,11.44,53.22,3,94.26-20.73,37.71-21.77,63.88-49.31,65.27-66.86,80.45-29.52,142.81-34.47,142.81-34.47s432.58-84,598.67,323.41C2425.48,1838.37,1957.29,1929.34,1957.29,1929.34Z" transform="translate(-530.09 -641.22)"/></g><path class="cls-6" d="M1911.43,2599.61s5,49.72,41.19,67.51a17.28,17.28,0,0,0,19.87-3.45c8.11-8.19,19.34-24.18,24.5-52.69Z" transform="translate(-530.09 -641.22)"/><path class="cls-4" d="M1960.13,2683a31,31,0,0,1-13.72-3.19c-42.75-21-48.76-76.4-49-78.75a14.07,14.07,0,0,1,15.86-15.36l85.56,11.37a14.08,14.08,0,0,1,12,16.46c-5.75,31.8-18.58,50.23-28.34,60.09A31.45,31.45,0,0,1,1960.13,2683Zm-30.5-66.72c4.36,13.25,12.91,30.26,29.19,38.26a3.24,3.24,0,0,0,3.66-.72c5.46-5.52,12.33-15.08,17.19-30.89Z" transform="translate(-530.09 -641.22)"/><path class="cls-6" d="M2180.89,2562.87s8.51,49.25-21.62,76.08a17.29,17.29,0,0,1-20.07,2c-10-5.73-25.11-18.12-37.71-44.22Z" transform="translate(-530.09 -641.22)"/><path class="cls-4" d="M2147.89,2657.35a31.54,31.54,0,0,1-15.69-4.18c-12-6.9-29.34-21.22-43.39-50.32a14.09,14.09,0,0,1,7.16-19.07l79.39-33.86a14.08,14.08,0,0,1,19.4,10.55c.4,2.33,9.44,57.33-26.13,89A31.16,31.16,0,0,1,2147.89,2657.35Zm-26.53-53.79c8.92,13.94,18.09,21.31,24.84,25.17a3.2,3.2,0,0,0,3.7-.29c13.47-12,17.17-30.71,17.84-44.66Z" transform="translate(-530.09 -641.22)"/><circle class="cls-4" cx="1972.37" cy="2484.23" r="16.3" transform="translate(-1647.72 2559.63) rotate(-64.61)"/><path class="cls-4" d="M2075.13,2470.22a16.3,16.3,0,1,0,13.95-18.35A16.3,16.3,0,0,0,2075.13,2470.22Z" transform="translate(-530.09 -641.22)"/><path class="cls-4" d="M1923.93,2535.58a56.41,56.41,0,0,1,8.86,16.68,70.47,70.47,0,0,1-5.23,57,63.41,63.41,0,0,1-30.73,27.48c-12.54,5-25.57,6.17-37.58,3.22a7.6,7.6,0,0,1-2.45-13.68l.3-.2c9.29-6.28,17.21-11.61,23.44-17.27a68.54,68.54,0,0,0,14.25-18c3.68-6.56,6.44-14.28,9.23-23.05s5-18.7,8.39-29.28l.27-.86a6.47,6.47,0,0,1,11.25-2.05Z" transform="translate(-530.09 -641.22)"/><path class="cls-4" d="M2163.58,2504.25c6.05,9.3,11,18.28,15.92,26s9.76,14.4,15.07,19.74a68.13,68.13,0,0,0,18.54,13.5c7.51,3.79,16.58,6.81,27.2,10.37l.33.11a7.61,7.61,0,0,1,1.32,13.84c-10.79,6.06-23.64,8.46-37.07,7a63.59,63.59,0,0,1-37-18.25,70.4,70.4,0,0,1-20.29-53.51,56.47,56.47,0,0,1,4.07-18.44,6.46,6.46,0,0,1,11.39-1Z" transform="translate(-530.09 -641.22)"/><path class="cls-4" d="M2012.14,2630.12c-56.11,0-102.65-14-105.05-14.72a18.77,18.77,0,0,1,11-35.91c.73.22,65.4,19.53,129.33,10.81s121.15-44.67,121.73-45a18.77,18.77,0,0,1,20.17,31.66c-2.6,1.66-64.49,40.71-136.83,50.57A299.65,299.65,0,0,1,2012.14,2630.12Z" transform="translate(-530.09 -641.22)"/><circle class="cls-8" cx="2263.26" cy="2308.15" r="144.56" transform="translate(-1499.31 1635.19) rotate(-45)"/><g class="cls-3"><path class="cls-4" d="M2243.73,2164.91a144.58,144.58,0,0,1,116,250.91,121.88,121.88,0,1,0-160.62,21.89,144.57,144.57,0,0,1,44.61-272.8Z" transform="translate(-530.09 -641.22)"/></g><path class="cls-4" d="M2263.14,2471.5c-80.35,0-150.57-59.5-161.72-141.29h0c-12.16-89.23,50.54-171.73,139.78-183.9s171.73,50.55,183.89,139.78-50.54,171.73-139.77,183.9A165.12,165.12,0,0,1,2263.14,2471.5Zm-124.52-146.36c9.37,68.73,72.91,117,141.63,107.64a125.93,125.93,0,0,0,107.65-141.62c-9.37-68.72-73-117-141.64-107.65a125.94,125.94,0,0,0-107.64,141.63Z" transform="translate(-530.09 -641.22)"/><circle class="cls-4" cx="2219.01" cy="2286.14" r="97.92" transform="translate(-1496.7 1597.45) rotate(-45)"/><circle class="cls-6" cx="2187.72" cy="2264.75" r="47.12" transform="translate(-1490.74 1569.06) rotate(-45)"/><circle class="cls-8" cx="1763.88" cy="2376.22" r="144.56" transform="translate(-1693.71 1302.01) rotate(-45)"/><g class="cls-3"><path class="cls-4" d="M1744.36,2233a144.56,144.56,0,0,0-44.62,272.79,121.87,121.87,0,1,1,160.62-21.89,144.56,144.56,0,0,0-116-250.9Z" transform="translate(-530.09 -641.22)"/></g><path class="cls-4" d="M1763.77,2539.57c-80.35,0-150.57-59.49-161.72-141.28-12.17-89.24,50.54-171.74,139.77-183.9s171.73,50.54,183.9,139.77h0c12.16,89.24-50.54,171.74-139.78,183.9A165,165,0,0,1,1763.77,2539.57Zm.19-289.15a125.91,125.91,0,0,0-124.72,142.79c9.37,68.73,72.89,117.05,141.63,107.65a125.94,125.94,0,0,0,107.65-141.63h0A126,126,0,0,0,1764,2250.42Z" transform="translate(-530.09 -641.22)"/><circle class="cls-4" cx="1270.53" cy="1701.95" r="97.92"/><circle class="cls-6" cx="1825.04" cy="2314.19" r="47.12" transform="translate(-1631.93 1327.09) rotate(-45)"/><path class="cls-4" d="M1898,2807.84c-124.67,0-226.82-22.32-305-66.79-93.48-53.19-150.81-154.11-149.63-263.38,2.93-272,142.33-411.91,258.76-481.35,120.76-72,239.32-84.42,252.56-85.61,13.09-2.4,130.64-22.19,266.27,14.88,130.76,35.74,302.52,133.21,378.15,394.53,30.39,105,2.15,217.56-73.67,293.82-91.26,91.79-242.74,152.68-450.22,181h0Q1980.29,2807.85,1898,2807.84ZM2050.7,1941c-53.71,0-89.2,6.62-89.85,6.75l-2.08.28c-1.17.09-120.58,10.46-238.54,81.22-156.57,93.92-237.07,244.92-239.26,448.8-1,95.64,49,183.9,130.65,230.34,105.18,59.85,259.47,76.43,458.59,49.29h0c199.13-27.14,343.35-84.41,428.67-170.22,66.21-66.6,90.82-165,64.23-256.91-56.68-195.86-174.67-319.8-350.66-368.39C2152.34,1945.58,2095.25,1941,2050.7,1941Z" transform="translate(-530.09 -641.22)"/></svg>